<svg width="50" height="50" viewBox="0 0 50 50" fill="none" xmlns="http://www.w3.org/2000/svg">
<g clip-path="url(#clip0_808_1354)">
<path d="M45.5 0H4.5C2.01472 0 0 2.01472 0 4.5V45.5C0 47.9853 2.01472 50 4.5 50H45.5C47.9853 50 50 47.9853 50 45.5V4.5C50 2.01472 47.9853 0 45.5 0Z" fill="#000E9C"/>
<path d="M9.52002 19.75C13.86 19.75 17.38 19.75 21.72 19.75C26.13 19.75 25.1 19.75 29.51 19.75C29.87 19.75 30 19.67 29.97 19.3C29.94 18.84 29.97 18.37 29.97 17.9C29.96 17.29 30.21 16.83 30.77 16.59C31.33 16.34 31.84 16.48 32.29 16.89C33.94 18.41 35.6 19.93 37.25 21.44C38.14 22.25 39.03 23.07 39.91 23.89C40.68 24.6 40.68 25.39 39.91 26.11C37.38 28.44 34.85 30.76 32.32 33.08C31.88 33.49 31.38 33.65 30.81 33.41C30.22 33.17 29.97 32.7 29.98 32.08C29.98 31.61 29.96 31.15 29.98 30.68C30 30.35 29.9 30.23 29.55 30.23C27.63 30.24 31.16 30.23 29.24 30.23C23.57 30.23 17.9 30.23 12.22 30.23C11.04 30.23 10.7 30.23 9.53002 30.23" stroke="white" stroke-linejoin="round"/>
<path d="M13.1 24.13C13.1 23.2684 12.4038 22.57 11.545 22.57C10.6862 22.57 9.98999 23.2684 9.98999 24.13V25.74C9.98999 26.6016 10.6862 27.3 11.545 27.3C12.4038 27.3 13.1 26.6016 13.1 25.74V24.13Z" stroke="#36E5FF" stroke-miterlimit="10"/>
<path d="M24.64 24.13C24.64 23.2684 23.9438 22.57 23.085 22.57C22.2262 22.57 21.53 23.2684 21.53 24.13V25.74C21.53 26.6016 22.2262 27.3 23.085 27.3C23.9438 27.3 24.64 26.6016 24.64 25.74V24.13Z" stroke="#36E5FF" stroke-miterlimit="10"/>
<path d="M14.44 24.04L16.21 22.63V27.65" stroke="#36E5FF" stroke-linejoin="round"/>
<path d="M25.98 24.04L27.75 22.63V27.65" stroke="#36E5FF" stroke-linejoin="round"/>
<path d="M17.74 24.04L19.51 22.63V27.65" stroke="#36E5FF" stroke-linejoin="round"/>
<path d="M32.88 24.13C32.88 23.2684 32.1838 22.57 31.325 22.57C30.4662 22.57 29.77 23.2684 29.77 24.13V25.74C29.77 26.6016 30.4662 27.3 31.325 27.3C32.1838 27.3 32.88 26.6016 32.88 25.74V24.13Z" stroke="#36E5FF" stroke-miterlimit="10"/>
</g>
<defs>
<clipPath id="clip0_808_1354">
<rect width="50" height="50" fill="white"/>
</clipPath>
</defs>
</svg>
