<svg width="50" height="50" viewBox="0 0 50 50" fill="none" xmlns="http://www.w3.org/2000/svg">
<g clip-path="url(#clip0_808_1711)">
<path d="M45.5 0H4.5C2.01472 0 0 2.01472 0 4.5V45.5C0 47.9853 2.01472 50 4.5 50H45.5C47.9853 50 50 47.9853 50 45.5V4.5C50 2.01472 47.9853 0 45.5 0Z" fill="#000E9C"/>
<path d="M40.34 30.24C34.67 30.24 23.37 30.24 17.69 30.24C16.51 30.24 10.69 30.24 9.51001 30.24M9.51001 19.75C13.85 19.75 22.86 19.75 27.2 19.75C31.61 19.75 36.21 19.75 40.62 19.75" stroke="white" stroke-linejoin="round"/>
<path d="M16.66 24.13C16.66 23.2684 15.9638 22.57 15.105 22.57C14.2462 22.57 13.55 23.2684 13.55 24.13V25.74C13.55 26.6016 14.2462 27.3 15.105 27.3C15.9638 27.3 16.66 26.6016 16.66 25.74V24.13Z" stroke="#36E5FF" stroke-miterlimit="10"/>
<path d="M28.21 24.13C28.21 23.2684 27.5138 22.57 26.655 22.57C25.7962 22.57 25.1 23.2684 25.1 24.13V25.74C25.1 26.6016 25.7962 27.3 26.655 27.3C27.5138 27.3 28.21 26.6016 28.21 25.74V24.13Z" stroke="#36E5FF" stroke-miterlimit="10"/>
<path d="M18 24.04L19.77 22.63V27.65" stroke="#36E5FF" stroke-linejoin="round"/>
<path d="M29.55 24.04L31.32 22.63V27.65" stroke="#36E5FF" stroke-linejoin="round"/>
<path d="M21.3 24.04L23.07 22.63V27.65" stroke="#36E5FF" stroke-linejoin="round"/>
<path d="M36.45 24.13C36.45 23.2684 35.7538 22.57 34.895 22.57C34.0362 22.57 33.34 23.2684 33.34 24.13V25.74C33.34 26.6016 34.0362 27.3 34.895 27.3C35.7538 27.3 36.45 26.6016 36.45 25.74V24.13Z" stroke="#36E5FF" stroke-miterlimit="10"/>
<path d="M18.2 30.24V34.17L9.51001 38.49V11.51L18.2 15.83V19.75" stroke="white" stroke-linejoin="round"/>
<path d="M31.8 30.24V34.17L40.49 38.49V11.51L31.8 15.83V19.75" stroke="white" stroke-linejoin="round"/>
</g>
<defs>
<clipPath id="clip0_808_1711">
<rect width="50" height="50" fill="white"/>
</clipPath>
</defs>
</svg>
