<svg width="50" height="50" viewBox="0 0 50 50" fill="none" xmlns="http://www.w3.org/2000/svg">
<g clip-path="url(#clip0_808_1619)">
<path d="M45.5 0H4.5C2.01472 0 0 2.01472 0 4.5V45.5C0 47.9853 2.01472 50 4.5 50H45.5C47.9853 50 50 47.9853 50 45.5V4.5C50 2.01472 47.9853 0 45.5 0Z" fill="#000E9C"/>
<path d="M12.13 14.71C12.13 17.58 17.89 19.91 25 19.91C32.11 19.91 37.87 17.58 37.87 14.71" stroke="white" stroke-linejoin="round"/>
<path d="M37.87 14.71C37.87 11.84 32.11 9.51001 25 9.51001C17.89 9.51001 12.13 11.84 12.13 14.71" stroke="white" stroke-linejoin="round"/>
<path d="M12.13 14.71V25C15.74 25 18.66 25 22.27 25C25.94 25 21.08 25 24.75 25C25.05 25 25.16 24.93 25.13 24.62C25.1 24.24 25.13 23.85 25.13 23.46C25.12 22.95 25.33 22.57 25.79 22.37C26.26 22.17 26.68 22.28 27.05 22.62C28.43 23.88 29.8 25.14 31.17 26.4C31.91 27.08 32.65 27.75 33.38 28.43C34.02 29.02 34.02 29.68 33.38 30.27C31.28 32.2 29.17 34.13 27.07 36.06C26.7 36.4 26.29 36.53 25.82 36.34C25.33 36.14 25.12 35.75 25.13 35.23C25.13 34.84 25.11 34.46 25.13 34.07C25.14 33.79 25.06 33.7 24.77 33.7C23.18 33.71 26.11 33.7 24.51 33.7C19.8 33.7 19.08 33.7 14.37 33.7C13.39 33.7 13.11 33.7 12.13 33.7V35.27C12.13 38.14 17.89 40.47 25 40.47C32.11 40.47 37.87 38.14 37.87 35.27V14.69" stroke="white" stroke-linejoin="round"/>
<path d="M13.82 27.34H13.81C13.0976 27.34 12.52 27.9176 12.52 28.63V29.98C12.52 30.6924 13.0976 31.27 13.81 31.27H13.82C14.5325 31.27 15.11 30.6924 15.11 29.98V28.63C15.11 27.9176 14.5325 27.34 13.82 27.34Z" stroke="#36E5FF" stroke-miterlimit="10"/>
<path d="M23.42 27.34H23.41C22.6975 27.34 22.12 27.9176 22.12 28.63V29.98C22.12 30.6924 22.6975 31.27 23.41 31.27H23.42C24.1324 31.27 24.71 30.6924 24.71 29.98V28.63C24.71 27.9176 24.1324 27.34 23.42 27.34Z" stroke="#36E5FF" stroke-miterlimit="10"/>
<path d="M16.22 28.57L17.69 27.39V31.57" stroke="#36E5FF" stroke-linejoin="round"/>
<path d="M25.81 28.57L27.29 27.39V31.57" stroke="#36E5FF" stroke-linejoin="round"/>
<path d="M18.96 28.57L20.44 27.39V31.57" stroke="#36E5FF" stroke-linejoin="round"/>
</g>
<defs>
<clipPath id="clip0_808_1619">
<rect width="50" height="50" fill="white"/>
</clipPath>
</defs>
</svg>
