<svg width="50" height="50" viewBox="0 0 50 50" fill="none" xmlns="http://www.w3.org/2000/svg">
<g clip-path="url(#clip0_808_2011)">
<path d="M45.5 0H4.5C2.01472 0 0 2.01472 0 4.5V45.5C0 47.9853 2.01472 50 4.5 50H45.5C47.9853 50 50 47.9853 50 45.5V4.5C50 2.01472 47.9853 0 45.5 0Z" fill="#000E9C"/>
<path d="M12.13 14.59C12.13 17.46 17.89 19.79 25 19.79C32.11 19.79 37.87 17.46 37.87 14.59" stroke="white" stroke-linejoin="round"/>
<path d="M37.86 14.59C37.86 11.72 32.1 9.39 24.99 9.39C17.88 9.39 12.12 11.72 12.12 14.59" stroke="white" stroke-linejoin="round"/>
<path d="M12.13 28.31C12.13 31.18 17.89 33.51 25 33.51C32.11 33.51 37.87 31.18 37.87 28.31" stroke="white" stroke-linejoin="round"/>
<path d="M12.13 21.45C12.13 24.32 17.89 26.65 25 26.65C32.11 26.65 37.87 24.32 37.87 21.45" stroke="white" stroke-linejoin="round"/>
<path d="M37.86 33.97V14.59" stroke="white" stroke-linejoin="round"/>
<path d="M12.13 14.59V35.17C12.13 38.04 17.89 40.37 25 40.37C25.65 40.37 26.29 40.35 26.92 40.31" stroke="white" stroke-linejoin="round"/>
<path d="M31.31 40.6C30.98 40.6 30.68 40.54 30.41 40.42C30.14 40.3 29.9 40.13 29.71 39.9C29.52 39.67 29.36 39.4 29.26 39.07C29.15 38.75 29.1 38.38 29.1 37.97C29.1 37.56 29.15 37.2 29.26 36.88C29.37 36.56 29.52 36.29 29.71 36.07C29.91 35.85 30.14 35.68 30.41 35.56C30.68 35.44 30.98 35.38 31.31 35.38C31.64 35.38 31.94 35.44 32.21 35.56C32.48 35.68 32.72 35.85 32.91 36.07C33.11 36.29 33.26 36.56 33.37 36.88C33.48 37.2 33.53 37.56 33.53 37.97C33.53 38.38 33.48 38.75 33.37 39.07C33.26 39.39 33.11 39.67 32.91 39.9C32.71 40.13 32.48 40.3 32.21 40.42C31.94 40.54 31.64 40.6 31.31 40.6ZM31.31 39.82C31.51 39.82 31.69 39.78 31.85 39.69C32.01 39.6 32.14 39.48 32.26 39.32C32.37 39.16 32.46 38.96 32.52 38.74C32.58 38.52 32.61 38.26 32.61 37.97C32.61 37.41 32.49 36.96 32.26 36.64C32.03 36.32 31.71 36.16 31.31 36.16C30.91 36.16 30.59 36.32 30.36 36.64C30.13 36.96 30.01 37.4 30.01 37.97C30.01 38.25 30.04 38.51 30.1 38.74C30.16 38.97 30.25 39.16 30.36 39.32C30.47 39.48 30.61 39.61 30.77 39.69C30.93 39.78 31.11 39.82 31.31 39.82Z" fill="#36E5FF"/>
<path d="M34.72 39.25C34.9 39.42 35.1 39.56 35.34 39.66C35.57 39.76 35.8 39.82 36.03 39.82C36.32 39.82 36.54 39.76 36.68 39.64C36.83 39.52 36.9 39.37 36.9 39.17C36.9 39.07 36.88 38.98 36.84 38.91C36.8 38.84 36.75 38.78 36.68 38.72C36.61 38.67 36.53 38.62 36.43 38.57C36.33 38.52 36.23 38.48 36.12 38.43L35.43 38.13C35.31 38.08 35.18 38.01 35.06 37.94C34.94 37.86 34.83 37.77 34.73 37.66C34.63 37.55 34.55 37.43 34.5 37.28C34.44 37.14 34.41 36.97 34.41 36.79C34.41 36.59 34.45 36.4 34.54 36.23C34.62 36.06 34.74 35.91 34.89 35.78C35.04 35.65 35.22 35.55 35.43 35.48C35.64 35.41 35.87 35.37 36.11 35.37C36.4 35.37 36.69 35.43 36.96 35.54C37.23 35.66 37.47 35.81 37.66 36.01L37.21 36.58C37.04 36.45 36.88 36.34 36.7 36.26C36.53 36.18 36.33 36.14 36.12 36.14C35.88 36.14 35.69 36.19 35.54 36.3C35.4 36.41 35.32 36.55 35.32 36.73C35.32 36.83 35.34 36.91 35.39 36.98C35.43 37.05 35.49 37.11 35.57 37.17C35.65 37.23 35.73 37.27 35.83 37.32C35.93 37.36 36.03 37.41 36.13 37.45L36.82 37.73C36.97 37.79 37.1 37.86 37.23 37.95C37.35 38.03 37.46 38.13 37.55 38.24C37.64 38.35 37.71 38.47 37.76 38.61C37.81 38.75 37.84 38.91 37.84 39.1C37.84 39.31 37.8 39.5 37.72 39.68C37.64 39.86 37.52 40.02 37.36 40.15C37.2 40.29 37.01 40.39 36.79 40.47C36.57 40.55 36.31 40.59 36.03 40.59C35.69 40.59 35.36 40.53 35.05 40.4C34.73 40.27 34.46 40.09 34.22 39.85L34.74 39.24L34.72 39.25Z" fill="#36E5FF"/>
</g>
<defs>
<clipPath id="clip0_808_2011">
<rect width="50" height="50" fill="white"/>
</clipPath>
</defs>
</svg>
