<svg width="50" height="50" viewBox="0 0 50 50" fill="none" xmlns="http://www.w3.org/2000/svg">
<g clip-path="url(#clip0_808_1866)">
<path d="M45.5 0H4.5C2.01472 0 0 2.01472 0 4.5V45.5C0 47.9853 2.01472 50 4.5 50H45.5C47.9853 50 50 47.9853 50 45.5V4.5C50 2.01472 47.9853 0 45.5 0Z" fill="#000E9C"/>
<path d="M45.5 0H4.5C2.01472 0 0 2.01472 0 4.5V45.5C0 47.9853 2.01472 50 4.5 50H45.5C47.9853 50 50 47.9853 50 45.5V4.5C50 2.01472 47.9853 0 45.5 0Z" fill="#000E9C"/>
<path d="M12.0701 14.67C12.0701 17.54 17.8301 19.87 24.9401 19.87C32.0501 19.87 37.8101 17.54 37.8101 14.67" stroke="white" stroke-linejoin="round"/>
<path d="M37.8101 14.67C37.8101 11.8 32.0501 9.47 24.9401 9.47C17.8301 9.47 12.0701 11.8 12.0701 14.67" stroke="white" stroke-linejoin="round"/>
<path d="M12.0701 28.39C12.0701 31.26 17.8301 33.59 24.9401 33.59C32.0501 33.59 37.8101 31.26 37.8101 28.39" stroke="white" stroke-linejoin="round"/>
<path d="M12.0701 21.53C12.0701 24.4 17.8301 26.73 24.9401 26.73C32.0501 26.73 37.8101 24.4 37.8101 21.53" stroke="white" stroke-linejoin="round"/>
<path d="M37.8101 34.05V14.67" stroke="white" stroke-linejoin="round"/>
<path d="M12.0701 14.67V35.25C12.0701 38.12 17.8301 40.45 24.9401 40.45C25.5901 40.45 26.2301 40.43 26.8601 40.39" stroke="white" stroke-linejoin="round"/>
<path d="M29.53 38.12C29.53 37.71 29.59 37.34 29.71 37.02C29.83 36.7 30 36.42 30.21 36.19C30.42 35.96 30.67 35.79 30.95 35.67C31.23 35.55 31.54 35.49 31.86 35.49C32.18 35.49 32.44 35.55 32.69 35.68C32.93 35.81 33.14 35.96 33.29 36.13L32.79 36.68C32.66 36.55 32.52 36.45 32.38 36.38C32.23 36.31 32.06 36.27 31.87 36.27C31.66 36.27 31.47 36.31 31.3 36.4C31.13 36.49 30.98 36.61 30.85 36.76C30.72 36.92 30.63 37.11 30.56 37.33C30.49 37.55 30.46 37.81 30.46 38.09C30.46 38.66 30.58 39.12 30.83 39.44C31.08 39.77 31.42 39.93 31.84 39.93C32.07 39.93 32.26 39.89 32.43 39.8C32.6 39.71 32.75 39.59 32.9 39.43L33.4 39.98C33.19 40.22 32.96 40.4 32.7 40.52C32.44 40.64 32.15 40.71 31.83 40.71C31.51 40.71 31.21 40.65 30.93 40.54C30.65 40.43 30.41 40.26 30.21 40.04C30 39.82 29.84 39.55 29.72 39.22C29.6 38.9 29.54 38.53 29.54 38.11L29.53 38.12Z" fill="#36E5FF"/>
<path d="M34.22 35.59H35.11V37.62H37.15V35.59H38.04V40.63H37.15V38.4H35.11V40.63H34.22V35.59Z" fill="#36E5FF"/>
</g>
<defs>
<clipPath id="clip0_808_1866">
<rect width="50" height="50" fill="white"/>
</clipPath>
</defs>
</svg>
