<svg width="50" height="50" viewBox="0 0 50 50" fill="none" xmlns="http://www.w3.org/2000/svg">
<g clip-path="url(#clip0_808_1817)">
<path d="M45.5 0H4.5C2.01472 0 0 2.01472 0 4.5V45.5C0 47.9853 2.01472 50 4.5 50H45.5C47.9853 50 50 47.9853 50 45.5V4.5C50 2.01472 47.9853 0 45.5 0Z" fill="#000E9C"/>
<path fill-rule="evenodd" clip-rule="evenodd" d="M40.4401 30.09C40.0501 33.51 37.1501 36.1 33.7101 36.1H16.2701C13.2101 36.09 10.5401 34.03 9.75007 31.08C8.99007 28.25 10.1301 25.27 12.5501 23.67C12.0801 21.83 12.7401 19.87 14.2601 18.69C15.7401 17.54 17.7401 17.36 19.3901 18.2C21.3101 14.92 25.1701 13.24 28.9101 14.13C32.8201 15.05 35.5901 18.52 35.6301 22.54V22.82C38.7701 23.74 40.8301 26.8 40.4501 30.1L40.4401 30.09Z" stroke="white" stroke-linejoin="round"/>
<path d="M21.8 22.5C19.37 24.29 18.84 27.71 20.63 30.14C21.79 31.72 23.64 32.49 25.46 32.35" stroke="#36E5FF" stroke-linejoin="round"/>
<path d="M18.5601 22.45L21.8701 22.44L21.8801 25.76" stroke="#36E5FF" stroke-linejoin="round"/>
<path d="M28.2001 31.34C30.6301 29.55 31.1601 26.13 29.3701 23.7C28.1901 22.1 26.3001 21.32 24.4501 21.49" stroke="#36E5FF" stroke-linejoin="round"/>
<path d="M31.4401 31.38L28.1301 31.39L28.1201 28.08" stroke="#36E5FF" stroke-linejoin="round"/>
</g>
<defs>
<clipPath id="clip0_808_1817">
<rect width="50" height="50" fill="white"/>
</clipPath>
</defs>
</svg>
