<svg width="50" height="50" viewBox="0 0 50 50" fill="none" xmlns="http://www.w3.org/2000/svg">
<g clip-path="url(#clip0_808_2025)">
<path d="M45.5 0H4.5C2.01472 0 0 2.01472 0 4.5V45.5C0 47.9853 2.01472 50 4.5 50H45.5C47.9853 50 50 47.9853 50 45.5V4.5C50 2.01472 47.9853 0 45.5 0Z" fill="#000E9C"/>
<path d="M20.08 37.83H11.99V25H17.55" stroke="white" stroke-linejoin="round"/>
<path d="M29.92 12.17H38.01V25H32.45" stroke="white" stroke-linejoin="round"/>
<path d="M25 27.88C26.5906 27.88 27.88 26.5906 27.88 25C27.88 23.4094 26.5906 22.12 25 22.12C23.4094 22.12 22.12 23.4094 22.12 25C22.12 26.5906 23.4094 27.88 25 27.88Z" stroke="#36E5FF" stroke-linejoin="round"/>
<path d="M19.78 22.31C19.63 22.6 19.5 22.91 19.4 23.23C19.26 23.67 18.86 23.97 18.4 23.97H17.91C17.71 23.97 17.54 24.13 17.54 24.34V25.69C17.54 25.89 17.7 26.06 17.91 26.06H18.4C18.86 26.06 19.26 26.36 19.4 26.8C19.5 27.12 19.63 27.42 19.78 27.72C19.99 28.13 19.92 28.63 19.59 28.95L19.25 29.29C19.11 29.43 19.11 29.67 19.25 29.81L20.21 30.77C20.35 30.91 20.59 30.91 20.73 30.77L21.07 30.43C21.4 30.1 21.89 30.03 22.3 30.24C22.59 30.39 22.9 30.52 23.22 30.62C23.66 30.76 23.96 31.16 23.96 31.62V32.11C23.96 32.31 24.12 32.48 24.33 32.48H25.68C25.88 32.48 26.05 32.32 26.05 32.11V31.62C26.05 31.16 26.35 30.76 26.79 30.62C27.11 30.52 27.41 30.39 27.71 30.24C28.12 30.03 28.62 30.1 28.94 30.43L29.28 30.77C29.42 30.91 29.66 30.91 29.8 30.77L30.76 29.81C30.9 29.67 30.9 29.43 30.76 29.29L30.42 28.95C30.09 28.62 30.02 28.13 30.23 27.72C30.38 27.43 30.51 27.12 30.61 26.8C30.75 26.36 31.15 26.06 31.61 26.06H32.1C32.3 26.06 32.47 25.9 32.47 25.69V24.34C32.47 24.14 32.31 23.97 32.1 23.97H31.61C31.15 23.97 30.75 23.67 30.61 23.23C30.51 22.91 30.38 22.61 30.23 22.31C30.02 21.9 30.09 21.4 30.42 21.08L30.76 20.74C30.9 20.6 30.9 20.36 30.76 20.22L29.8 19.26C29.66 19.12 29.42 19.12 29.28 19.26L28.94 19.6C28.61 19.93 28.12 20 27.71 19.79C27.42 19.64 27.11 19.51 26.79 19.41C26.35 19.27 26.05 18.87 26.05 18.41V17.92C26.05 17.72 25.89 17.55 25.68 17.55H24.33C24.13 17.55 23.96 17.71 23.96 17.92V18.41C23.96 18.87 23.66 19.27 23.22 19.41C22.9 19.51 22.6 19.64 22.3 19.79C21.89 20 21.39 19.93 21.07 19.6L20.73 19.26C20.59 19.12 20.35 19.12 20.21 19.26L19.25 20.22C19.11 20.36 19.11 20.6 19.25 20.74L19.59 21.08C19.92 21.41 19.99 21.9 19.78 22.31Z" stroke="#36E5FF" stroke-linejoin="round"/>
<path d="M20.08 14.48L29.92 14.48V9.88001H20.08V14.48Z" stroke="white" stroke-linejoin="round"/>
<path d="M29.92 35.53H20.08V40.13H29.92V35.53Z" stroke="white" stroke-linejoin="round"/>
<path d="M17.38 35.02L20.08 37.83L17.38 40.49" stroke="white" stroke-linejoin="round"/>
<path d="M35.15 27.81L32.45 25L35.15 22.34" stroke="white" stroke-linejoin="round"/>
</g>
<defs>
<clipPath id="clip0_808_2025">
<rect width="50" height="50" fill="white"/>
</clipPath>
</defs>
</svg>
