<svg width="29" height="32" viewBox="0 0 29 32" fill="none" xmlns="http://www.w3.org/2000/svg">
<path d="M29 20.5083V11.0252C29 8.78211 27.7983 6.69924 25.8557 5.57769L17.6443 0.84116C15.7017 -0.280387 13.2983 -0.280387 11.3557 0.84116L3.14434 5.57769C1.20166 6.69924 0 8.7721 0 11.0252V20.5083C0 22.7514 1.20166 24.8343 3.14434 25.9558L11.3557 30.6923C13.2983 31.8139 15.7017 31.8139 17.6443 30.6923L25.8557 25.9558C27.7983 24.8343 29 22.7614 29 20.5083Z" stroke="white" stroke-linejoin="round"/>
<path d="M13.2883 16.7731H6.63916V23.4223H13.2883V16.7731Z" stroke="#36E5FF" stroke-linejoin="round"/>
<path d="M13.2883 8.12122H6.63916V14.7704H13.2883V8.12122Z" stroke="#36E5FF" stroke-linejoin="round"/>
<path d="M21.9403 8.12122H15.2911V14.7704H21.9403V8.12122Z" stroke="#36E5FF" stroke-linejoin="round"/>
<path d="M21.9403 16.7731H15.2911V23.4223H21.9403V16.7731Z" stroke="#36E5FF" stroke-linejoin="round"/>
</svg>
