<svg width="50" height="50" viewBox="0 0 50 50" fill="none" xmlns="http://www.w3.org/2000/svg">
<g clip-path="url(#clip0_808_1735)">
<path d="M45.5 -0.215576H4.5C2.01472 -0.215576 0 1.79914 0 4.28442V45.2844C0 47.7697 2.01472 49.7844 4.5 49.7844H45.5C47.9853 49.7844 50 47.7697 50 45.2844V4.28442C50 1.79914 47.9853 -0.215576 45.5 -0.215576Z" fill="#000E9C"/>
<path d="M39.48 29.5195V20.0495C39.48 17.8095 38.28 15.7295 36.34 14.6095L28.14 9.87946C26.2 8.75946 23.8 8.75946 21.86 9.87946L13.66 14.6095C11.72 15.7295 10.52 17.7995 10.52 20.0495V29.5195C10.52 31.7595 11.72 33.8395 13.66 34.9595L21.86 39.6895C23.8 40.8095 26.2 40.8095 28.14 39.6895L36.34 34.9595C38.28 33.8395 39.48 31.7695 39.48 29.5195Z" stroke="white" stroke-linejoin="round"/>
<path d="M23.79 25.7895H17.15V32.4295H23.79V25.7895Z" stroke="#36E5FF" stroke-linejoin="round"/>
<path d="M23.79 17.1495H17.15V23.7895H23.79V17.1495Z" stroke="#36E5FF" stroke-linejoin="round"/>
<path d="M32.43 17.1495H25.79V23.7895H32.43V17.1495Z" stroke="#36E5FF" stroke-linejoin="round"/>
<path d="M32.43 25.7895H25.79V32.4295H32.43V25.7895Z" stroke="#36E5FF" stroke-linejoin="round"/>
</g>
<defs>
<clipPath id="clip0_808_1735">
<rect width="50" height="50" fill="white"/>
</clipPath>
</defs>
</svg>
