<svg width="50" height="50" viewBox="0 0 50 50" fill="none" xmlns="http://www.w3.org/2000/svg">
<g clip-path="url(#clip0_808_1399)">
<path d="M45.5 0H4.5C2.01472 0 0 2.01472 0 4.5V45.5C0 47.9853 2.01472 50 4.5 50H45.5C47.9853 50 50 47.9853 50 45.5V4.5C50 2.01472 47.9853 0 45.5 0Z" fill="#000E9C"/>
<path d="M19.62 32.63H10.9C10.15 32.63 9.55 32.02 9.55 31.28V11.26C9.55 10.51 10.16 9.91 10.9 9.91H39.11C39.86 9.91 40.46 10.52 40.46 11.26V31.28C40.46 32.03 39.85 32.63 39.11 32.63H30.39" stroke="white" stroke-linejoin="round"/>
<path d="M10.31 10.5L23.91 22.43C24.67 23.1 25.81 23.09 26.55 22.41L39.7 10.5" stroke="white" stroke-linejoin="round"/>
<path d="M10.31 10.5L20.58 19.51L23.9 22.43C24.66 23.1 25.8 23.09 26.54 22.41L29.76 19.5L39.69 10.5" stroke="white" stroke-linejoin="round"/>
<path d="M22.51 21.21L10.31 32.27" stroke="white" stroke-linejoin="round"/>
<path d="M39.69 32.27L27.49 21.56" stroke="white" stroke-linejoin="round"/>
<path d="M25.03 26.27H24.98C24.23 27.73 22.75 28.75 21.02 28.99L20.71 29.02H20.29C20.15 29.02 20.0067 29.02 19.86 29.02C19.59 29 19.33 28.96 19.07 28.9C19.04 29.1 19.02 29.3 19.01 29.5C19.01 33.73 21.25 37.69 25 40.09C28.75 37.69 30.99 33.73 30.99 29.5C30.99 29.3 30.98 29.1 30.95 28.9C30.69 28.96 30.42 29 30.15 29.02H30.13H29.44C29.3933 29.02 29.3367 29.02 29.27 29.02L28.98 28.99C27.25 28.76 25.76 27.74 25.01 26.27H25.03ZM25 29.42C24.01 30.34 22.68 30.88 21.28 30.93C21.28 33.55 22.68 36.01 25 37.51C27.32 36.01 28.71 33.55 28.72 30.93C27.32 30.88 25.99 30.34 25 29.42Z" stroke="#36E5FF" stroke-linejoin="round"/>
</g>
<defs>
<clipPath id="clip0_808_1399">
<rect width="50" height="50" fill="white"/>
</clipPath>
</defs>
</svg>
