<svg width="50" height="50" viewBox="0 0 50 50" fill="none" xmlns="http://www.w3.org/2000/svg">
<g clip-path="url(#clip0_808_1226)">
<path d="M45.5 0H4.5C2.01472 0 0 2.01472 0 4.5V45.5C0 47.9853 2.01472 50 4.5 50H45.5C47.9853 50 50 47.9853 50 45.5V4.5C50 2.01472 47.9853 0 45.5 0Z" fill="#000E9C"/>
<path d="M17.4999 31.73H16.2699C13.2099 31.72 10.5399 29.66 9.74994 26.71C8.98994 23.88 10.1299 20.9 12.5499 19.3C12.0799 17.46 12.7399 15.5 14.2599 14.32C15.7399 13.17 17.7399 12.99 19.3899 13.83C21.3099 10.55 25.1699 8.86999 28.9099 9.75999C32.8199 10.68 35.5899 14.15 35.6299 18.17V18.45C38.7699 19.37 40.8299 22.43 40.4499 25.73C40.0599 29.15 37.1599 31.74 33.7199 31.74H32.3299" stroke="white" stroke-linejoin="round"/>
<path d="M17.8101 37.71V19.55C17.8101 18.6 18.5901 17.82 19.5401 17.82H30.1701C31.1201 17.82 31.9001 18.6 31.9001 19.55V37.71H17.8101Z" stroke="#36E5FF" stroke-linejoin="round"/>
<path d="M34.37 37.72H15.63" stroke="#36E5FF" stroke-linejoin="round"/>
<path d="M19.4 37.72V39.92H21.85V37.72" stroke="#36E5FF" stroke-linejoin="round"/>
<path d="M23.55 37.72V39.92H30.39V37.72" stroke="#36E5FF" stroke-linejoin="round"/>
<path d="M27.2 22.13H22.81C22.4289 22.13 22.12 22.4389 22.12 22.82V27.18C22.12 27.5611 22.4289 27.87 22.81 27.87H27.2C27.5811 27.87 27.89 27.5611 27.89 27.18V22.82C27.89 22.4389 27.5811 22.13 27.2 22.13Z" stroke="#36E5FF" stroke-linejoin="round"/>
<path d="M22.41 23.32H20.6" stroke="#36E5FF" stroke-linejoin="round"/>
<path d="M22.41 26.68H20.6" stroke="#36E5FF" stroke-linejoin="round"/>
<path d="M22.41 25H20.6" stroke="#36E5FF" stroke-linejoin="round"/>
<path d="M29.4 25H27.59" stroke="#36E5FF" stroke-linejoin="round"/>
<path d="M25 22.41V20.6" stroke="#36E5FF" stroke-linejoin="round"/>
<path d="M27.59 26.68H29.4" stroke="#36E5FF" stroke-linejoin="round"/>
<path d="M27.59 23.32H29.4" stroke="#36E5FF" stroke-linejoin="round"/>
<path d="M26.6801 22.41V20.6" stroke="#36E5FF" stroke-linejoin="round"/>
<path d="M23.3199 22.41V20.6" stroke="#36E5FF" stroke-linejoin="round"/>
<path d="M23.3199 27.59V29.4" stroke="#36E5FF" stroke-linejoin="round"/>
<path d="M26.6801 27.59V29.4" stroke="#36E5FF" stroke-linejoin="round"/>
<path d="M25 35.23V31.14" stroke="#36E5FF" stroke-linejoin="round"/>
<path d="M22.5 35.23V31.14" stroke="#36E5FF" stroke-linejoin="round"/>
<path d="M27.5 35.23V31.14" stroke="#36E5FF" stroke-linejoin="round"/>
<path d="M25 27.59V29.4" stroke="#36E5FF" stroke-linejoin="round"/>
</g>
<defs>
<clipPath id="clip0_808_1226">
<rect width="50" height="50" fill="white"/>
</clipPath>
</defs>
</svg>
