<svg width="50" height="50" viewBox="0 0 50 50" fill="none" xmlns="http://www.w3.org/2000/svg">
<g clip-path="url(#clip0_808_1511)">
<path d="M45.5 0H4.5C2.01472 0 0 2.01472 0 4.5V45.5C0 47.9853 2.01472 50 4.5 50H45.5C47.9853 50 50 47.9853 50 45.5V4.5C50 2.01472 47.9853 0 45.5 0Z" fill="#000E9C"/>
<path d="M11.27 30.5L38.74 30.5C39.7065 30.5 40.49 29.7165 40.49 28.75V21.26C40.49 20.2935 39.7065 19.51 38.74 19.51L11.27 19.51C10.3035 19.51 9.51999 20.2935 9.51999 21.26V28.75C9.51999 29.7165 10.3035 30.5 11.27 30.5Z" stroke="white" stroke-linejoin="round"/>
<path d="M34.39 25H20.38" stroke="#36E5FF" stroke-linejoin="round"/>
<circle cx="15.61" cy="25" r="0.75" fill="#36E5FF"/>
</g>
<defs>
<clipPath id="clip0_808_1511">
<rect width="50" height="50" fill="white"/>
</clipPath>
</defs>
</svg>
