<svg width="50" height="50" viewBox="0 0 50 50" fill="none" xmlns="http://www.w3.org/2000/svg">
<g clip-path="url(#clip0_808_1319)">
<path d="M45.5 0H4.5C2.01472 0 0 2.01472 0 4.5V45.5C0 47.9853 2.01472 50 4.5 50H45.5C47.9853 50 50 47.9853 50 45.5V4.5C50 2.01472 47.9853 0 45.5 0Z" fill="#000E9C"/>
<path fill-rule="evenodd" clip-rule="evenodd" d="M40.4401 30.09C40.0501 33.51 37.1501 36.1 33.7101 36.1H16.2701C13.2101 36.09 10.5401 34.03 9.75007 31.08C8.99007 28.25 10.1301 25.27 12.5501 23.67C12.0801 21.83 12.7401 19.87 14.2601 18.69C15.7401 17.54 17.7401 17.36 19.3901 18.2C21.3101 14.92 25.1701 13.24 28.9101 14.13C32.8201 15.05 35.5901 18.52 35.6301 22.54V22.82C38.7701 23.74 40.8301 26.8 40.4501 30.1L40.4401 30.09Z" stroke="white" stroke-linejoin="round"/>
<path d="M27.5801 32.48V23.81H18.9101V32.48H27.5801Z" stroke="#36E5FF" stroke-linejoin="round"/>
<path d="M23.9301 28.96H22.4301V27.46" stroke="#36E5FF" stroke-linejoin="round"/>
<path d="M22.4301 25.57V22.74" stroke="#36E5FF" stroke-linejoin="round"/>
<path d="M22.4301 21.79V20.29H23.9301" stroke="#36E5FF" stroke-linejoin="round"/>
<path d="M25.8201 20.29H28.6501" stroke="#36E5FF" stroke-linejoin="round"/>
<path d="M29.6001 20.29H31.1001V21.79" stroke="#36E5FF" stroke-linejoin="round"/>
<path d="M31.1001 23.68V26.52" stroke="#36E5FF" stroke-linejoin="round"/>
<path d="M31.1001 27.46V28.96H29.6001" stroke="#36E5FF" stroke-linejoin="round"/>
<path d="M27.71 28.96H24.87" stroke="#36E5FF" stroke-linejoin="round"/>
</g>
<defs>
<clipPath id="clip0_808_1319">
<rect width="50" height="50" fill="white"/>
</clipPath>
</defs>
</svg>
