<svg width="50" height="50" viewBox="0 0 50 50" fill="none" xmlns="http://www.w3.org/2000/svg">
<g clip-path="url(#clip0_808_1591)">
<path d="M45.5 0H4.5C2.01472 0 0 2.01472 0 4.5V45.5C0 47.9853 2.01472 50 4.5 50H45.5C47.9853 50 50 47.9853 50 45.5V4.5C50 2.01472 47.9853 0 45.5 0Z" fill="#000E9C"/>
<path d="M31.4001 33.91H16.2701C13.2101 33.9 10.5401 31.84 9.75007 28.89C8.99007 26.06 10.1301 23.08 12.5501 21.48C12.0801 19.64 12.7401 17.68 14.2601 16.5C15.7401 15.35 17.7401 15.17 19.3901 16.01C21.3101 12.73 25.1701 11.05 28.9101 11.94C32.8201 12.86 35.5901 16.33 35.6301 20.35V20.63C38.7701 21.55 40.8301 24.61 40.4501 27.91C40.3201 29.02 39.9301 30.04 39.3401 30.92" stroke="white" stroke-linejoin="round"/>
<path d="M39.37 31.2H32.9C32.287 31.2 31.79 31.697 31.79 32.31V37.18C31.79 37.793 32.287 38.29 32.9 38.29H39.37C39.9831 38.29 40.48 37.793 40.48 37.18V32.31C40.48 31.697 39.9831 31.2 39.37 31.2Z" stroke="#36E5FF" stroke-linejoin="round"/>
<path d="M38.9101 31.19V29.49C38.9101 27.96 37.6701 26.71 36.1301 26.71C34.5901 26.71 33.3501 27.95 33.3501 29.49V31.19" stroke="#36E5FF" stroke-linejoin="round"/>
<path d="M36.14 35.35V33.42" stroke="#36E5FF" stroke-linejoin="round"/>
<path d="M27.8002 21.59H25.6702V23.72H27.8002V21.59Z" stroke="white" stroke-linejoin="round"/>
<path d="M26.9101 26.3H30.3801V19.01H23.0901V22.48H19.6201V29.77H26.9101V26.3Z" stroke="white" stroke-linejoin="round"/>
<path d="M24.4101 24.98H22.1301V27.26H24.4101V24.98Z" stroke="white" stroke-linejoin="round"/>
</g>
<defs>
<clipPath id="clip0_808_1591">
<rect width="50" height="50" fill="white"/>
</clipPath>
</defs>
</svg>
