<svg width="50" height="50" viewBox="0 0 50 50" fill="none" xmlns="http://www.w3.org/2000/svg">
<g clip-path="url(#clip0_808_1659)">
<path d="M45.5 0H4.5C2.01472 0 0 2.01472 0 4.5V45.5C0 47.9853 2.01472 50 4.5 50H45.5C47.9853 50 50 47.9853 50 45.5V4.5C50 2.01472 47.9853 0 45.5 0Z" fill="#000E9C"/>
<path fill-rule="evenodd" clip-rule="evenodd" d="M40.4401 30.1C40.0501 33.52 37.1501 36.11 33.7101 36.11H16.2701C13.2101 36.1 10.5401 34.04 9.75007 31.09C8.99007 28.26 10.1301 25.28 12.5501 23.68C12.0801 21.84 12.7401 19.88 14.2601 18.7C15.7401 17.55 17.7401 17.37 19.3901 18.21C21.3101 14.93 25.1701 13.25 28.9101 14.14C32.8201 15.06 35.5901 18.53 35.6301 22.55V22.83C38.7701 23.75 40.8301 26.81 40.4501 30.11L40.4401 30.1Z" stroke="white" stroke-linejoin="round"/>
<path d="M17.3601 32.39H32.6501C33.3073 32.39 33.8401 31.8572 33.8401 31.2V27.31C33.8401 26.6528 33.3073 26.12 32.6501 26.12H17.3601C16.7029 26.12 16.1701 26.6528 16.1701 27.31V31.2C16.1701 31.8572 16.7029 32.39 17.3601 32.39Z" stroke="#36E5FF" stroke-linejoin="round"/>
<path d="M30.36 29.26H22.36" stroke="#36E5FF" stroke-linejoin="round"/>
<circle cx="19.64" cy="29.26" r="0.5" fill="#36E5FF"/>
</g>
<defs>
<clipPath id="clip0_808_1659">
<rect width="50" height="50" fill="white"/>
</clipPath>
</defs>
</svg>
