<svg width="50" height="50" viewBox="0 0 50 50" fill="none" xmlns="http://www.w3.org/2000/svg">
<g clip-path="url(#clip0_954_2)">
<path d="M45.5 0H4.5C2.01472 0 0 2.01472 0 4.5V45.5C0 47.9853 2.01472 50 4.5 50H45.5C47.9853 50 50 47.9853 50 45.5V4.5C50 2.01472 47.9853 0 45.5 0Z" fill="#000E9C"/>
<path d="M33.0599 40.49V19.41H16.9499V40.49H33.0599Z" stroke="white" stroke-linejoin="round"/>
<path d="M23.2299 22.41H21.35C20.991 22.41 20.7 22.701 20.7 23.06V24.94C20.7 25.299 20.991 25.59 21.35 25.59H23.2299C23.5889 25.59 23.8799 25.299 23.8799 24.94V23.06C23.8799 22.701 23.5889 22.41 23.2299 22.41Z" stroke="#36E5FF" stroke-linejoin="round"/>
<path d="M29.2999 24.94V23.06C29.2999 22.701 29.0089 22.41 28.6499 22.41H26.7699C26.4109 22.41 26.1199 22.701 26.1199 23.06V24.94C26.1199 25.299 26.4109 25.59 26.7699 25.59H28.6499C29.0089 25.59 29.2999 25.299 29.2999 24.94Z" stroke="#36E5FF" stroke-linejoin="round"/>
<path d="M23.2299 27.83H21.35C20.991 27.83 20.7 28.121 20.7 28.48V30.36C20.7 30.719 20.991 31.01 21.35 31.01H23.2299C23.5889 31.01 23.8799 30.719 23.8799 30.36V28.48C23.8799 28.121 23.5889 27.83 23.2299 27.83Z" stroke="#36E5FF" stroke-linejoin="round"/>
<path d="M29.2999 30.36V28.48C29.2999 28.121 29.0089 27.83 28.6499 27.83H26.7699C26.4109 27.83 26.1199 28.121 26.1199 28.48V30.36C26.1199 30.719 26.4109 31.01 26.7699 31.01H28.6499C29.0089 31.01 29.2999 30.719 29.2999 30.36Z" stroke="#36E5FF" stroke-linejoin="round"/>
<circle cx="22" cy="35.3" r="0.75" fill="#36E5FF"/>
<path d="M29.7299 33.11H20.2699C19.8833 33.11 19.5699 33.4234 19.5699 33.81V36.79C19.5699 37.1766 19.8833 37.49 20.2699 37.49H29.7299C30.1165 37.49 30.4299 37.1766 30.4299 36.79V33.81C30.4299 33.4234 30.1165 33.11 29.7299 33.11Z" stroke="#36E5FF" stroke-linejoin="round"/>
<path d="M36.06 40.49H40.48V19.41L25 9.51001L9.51001 19.41V40.49H13.94" stroke="white" stroke-linejoin="round"/>
</g>
<defs>
<clipPath id="clip0_954_2">
<rect width="50" height="50" fill="white"/>
</clipPath>
</defs>
</svg>
