<svg width="50" height="50" viewBox="0 0 50 50" fill="none" xmlns="http://www.w3.org/2000/svg">
<g clip-path="url(#clip0_808_1699)">
<path d="M45.5 0H4.5C2.01472 0 0 2.01472 0 4.5V45.5C0 47.9853 2.01472 50 4.5 50H45.5C47.9853 50 50 47.9853 50 45.5V4.5C50 2.01472 47.9853 0 45.5 0Z" fill="#000E9C"/>
<path fill-rule="evenodd" clip-rule="evenodd" d="M40.4401 30.09C40.0501 33.51 37.1501 36.1 33.7101 36.1H16.2701C13.2101 36.09 10.5401 34.03 9.75007 31.08C8.99007 28.25 10.1301 25.27 12.5501 23.67C12.0801 21.83 12.7401 19.87 14.2601 18.69C15.7401 17.54 17.7401 17.36 19.3901 18.2C21.3101 14.92 25.1701 13.24 28.9101 14.13C32.8201 15.05 35.5901 18.52 35.6301 22.54V22.82C38.7701 23.74 40.8301 26.8 40.4501 30.1L40.4401 30.09Z" stroke="white" stroke-linejoin="round"/>
<path d="M19.97 29.7C19.97 29.7 17.7 29.36 17.7 26.92C17.7 24.48 19.97 24.14 19.97 24.14C19.97 24.14 19.63 21.15 22.92 20.04C26.44 18.85 28.33 22.41 28.33 22.41C28.33 22.41 31.42 21.85 32.64 24.73C33.86 27.61 30.8 29.58 30.8 29.58" stroke="#36E5FF" stroke-linejoin="round"/>
<path d="M27.4999 26.62L25.5399 27.79" stroke="#36E5FF" stroke-linejoin="round"/>
<path d="M25.1499 30.13L26.5199 31.44" stroke="#36E5FF" stroke-linejoin="round"/>
<path d="M27.25 33.23C27.8906 33.23 28.41 32.7106 28.41 32.07C28.41 31.4293 27.8906 30.91 27.25 30.91C26.6093 30.91 26.09 31.4293 26.09 32.07C26.09 32.7106 26.6093 33.23 27.25 33.23Z" stroke="#36E5FF" stroke-linejoin="round"/>
<path d="M28.7499 27.35C29.4734 27.35 30.0599 26.7635 30.0599 26.04C30.0599 25.3165 29.4734 24.73 28.7499 24.73C28.0264 24.73 27.4399 25.3165 27.4399 26.04C27.4399 26.7635 28.0264 27.35 28.7499 27.35Z" stroke="#36E5FF" stroke-linejoin="round"/>
<path d="M23.7599 30.65C24.9032 30.65 25.8299 29.7232 25.8299 28.58C25.8299 27.4368 24.9032 26.51 23.7599 26.51C22.6167 26.51 21.6899 27.4368 21.6899 28.58C21.6899 29.7232 22.6167 30.65 23.7599 30.65Z" stroke="#36E5FF" stroke-linejoin="round"/>
</g>
<defs>
<clipPath id="clip0_808_1699">
<rect width="50" height="50" fill="white"/>
</clipPath>
</defs>
</svg>
