<svg width="50" height="50" viewBox="0 0 50 50" fill="none" xmlns="http://www.w3.org/2000/svg">
<g clip-path="url(#clip0_687_2)">
<path d="M45.5 1C47.43 1 49 2.57 49 4.5V45.5C49 47.43 47.43 49 45.5 49H4.5C2.57 49 1 47.43 1 45.5V4.5C1 2.57 2.57 1 4.5 1H45.5ZM45.5 0H4.5C2.01 0 0 2.01 0 4.5V45.5C0 47.99 2.01 50 4.5 50H45.5C47.99 50 50 47.99 50 45.5V4.5C50 2.01 47.99 0 45.5 0Z" fill="#0050D5"/>
<path d="M30.26 19.7V13.04" stroke="#0050D5" stroke-linejoin="round"/>
<path d="M14.52 13.04V36.96C14.52 38.91 18.04 40.49 22.39 40.49C26.74 40.49 30.26 38.91 30.26 36.96L30.3 22.86" stroke="#0050D5" stroke-linejoin="round"/>
<path d="M14.52 13.04C14.52 14.99 18.04 16.57 22.39 16.57C26.74 16.57 30.26 14.99 30.26 13.04" stroke="#0050D5" stroke-linejoin="round"/>
<path d="M30.26 13.04C30.26 11.09 26.74 9.51001 22.39 9.51001C18.04 9.51001 14.52 11.09 14.52 13.04" stroke="#0050D5" stroke-linejoin="round"/>
<path d="M35.48 23.76V27.77C35.48 28.17 34.76 28.49 33.88 28.49C33 28.49 32.28 28.17 32.28 27.77V23.76L27.1 21.28C27.1 21.28 26.15 20.8 26.36 19.74C26.51 19 27.28 18.09 28.08 18.52L34.76 21.79C35.19 22.01 35.46 22.44 35.46 22.93V23.77L35.48 23.76Z" stroke="#4AB0F5" stroke-linejoin="round"/>
</g>
<defs>
<clipPath id="clip0_687_2">
<rect width="50" height="50" fill="white"/>
</clipPath>
</defs>
</svg>
