<svg width="50" height="50" viewBox="0 0 50 50" fill="none" xmlns="http://www.w3.org/2000/svg">
<g clip-path="url(#clip0_687_64)">
<path d="M45.5 1C47.43 1 49 2.57 49 4.5V45.5C49 47.43 47.43 49 45.5 49H4.5C2.57 49 1 47.43 1 45.5V4.5C1 2.57 2.57 1 4.5 1H45.5ZM45.5 0H4.5C2.01 0 0 2.01 0 4.5V45.5C0 47.99 2.01 50 4.5 50H45.5C47.99 50 50 47.99 50 45.5V4.5C50 2.01 47.99 0 45.5 0Z" fill="#0050D5"/>
<path d="M20.72 34.53V22.26C20.72 22.26 23.49 22.71 26.98 20.56C29.96 18.73 29.93 16.95 29.93 16.95V29.17" stroke="#4AB0F5" stroke-linejoin="round"/>
<path d="M29.93 29.22C29.93 29.22 27.19 28.81 23.67 30.92C22.08 31.88 20.85 33.38 20.72 33.99V34.53C20.72 34.53 23.41 34.84 26.98 32.83C29.93 31.17 29.93 29.22 29.93 29.22Z" stroke="#4AB0F5" stroke-linejoin="round"/>
<path d="M32.12 9.54999C32.12 9.54999 27.92 8.98999 22.44 12.18C17.84 14.85 17.89 17.76 17.89 17.76C17.89 17.76 22.17 18.46 27.57 15.13C32.28 12.23 32.12 9.54999 32.12 9.54999Z" stroke="#0050D5" stroke-linejoin="round"/>
<path d="M32.12 9.54999V32.23C32.12 32.23 32.17 35.07 27.57 37.81C22.12 41.05 17.89 40.44 17.89 40.44V17.76" stroke="#0050D5" stroke-linejoin="round"/>
</g>
<defs>
<clipPath id="clip0_687_64">
<rect width="50" height="50" fill="white"/>
</clipPath>
</defs>
</svg>
