<svg width="50" height="50" viewBox="0 0 50 50" fill="none" xmlns="http://www.w3.org/2000/svg">
<g clip-path="url(#clip0_687_54)">
<path d="M45.5 1C47.43 1 49 2.57 49 4.5V45.5C49 47.43 47.43 49 45.5 49H4.5C2.57 49 1 47.43 1 45.5V4.5C1 2.57 2.57 1 4.5 1H45.5ZM45.5 0H4.5C2.01 0 0 2.01 0 4.5V45.5C0 47.99 2.01 50 4.5 50H45.5C47.99 50 50 47.99 50 45.5V4.5C50 2.01 47.99 0 45.5 0Z" fill="#0050D5"/>
<path d="M19.56 25.57V38.33C19.56 39.52 21.99 40.48 25 40.48C28.01 40.48 30.44 39.52 30.44 38.33V25.7" stroke="#0050D5" stroke-linejoin="round"/>
<path d="M35.44 17.04L32.7 24.07C31.82 25.54 28.7 26.62 24.99 26.62C21.28 26.62 18.21 25.55 17.3 24.1L14.56 17.07" stroke="#4AB0F5" stroke-linejoin="round"/>
<path d="M21.77 26.3L20.53 20.61" stroke="#4AB0F5" stroke-linejoin="round"/>
<path d="M28.23 26.3L29.47 20.61" stroke="#4AB0F5" stroke-linejoin="round"/>
<path d="M29.04 16.38V9.51001" stroke="#0050D5" stroke-linejoin="round"/>
<path d="M25 20.88C30.8266 20.88 35.55 18.8608 35.55 16.37C35.55 13.8792 30.8266 11.86 25 11.86C19.1734 11.86 14.45 13.8792 14.45 16.37C14.45 18.8608 19.1734 20.88 25 20.88Z" stroke="#0050D5" stroke-linejoin="round"/>
</g>
<defs>
<clipPath id="clip0_687_54">
<rect width="50" height="50" fill="white"/>
</clipPath>
</defs>
</svg>
