<svg width="50" height="50" viewBox="0 0 50 50" fill="none" xmlns="http://www.w3.org/2000/svg">
<g clip-path="url(#clip0_687_41)">
<path d="M45.5 1C47.43 1 49 2.57 49 4.5V45.5C49 47.43 47.43 49 45.5 49H4.5C2.57 49 1 47.43 1 45.5V4.5C1 2.57 2.57 1 4.5 1H45.5ZM45.5 0H4.5C2.01 0 0 2.01 0 4.5V45.5C0 47.99 2.01 50 4.5 50H45.5C47.99 50 50 47.99 50 45.5V4.5C50 2.01 47.99 0 45.5 0Z" fill="#0050D5"/>
<path d="M25.01 29.68V40.49" stroke="#0050D5" stroke-linejoin="round"/>
<path d="M14.6 15.5L24.99 9.51001L35.4 15.5" stroke="#0050D5" stroke-linejoin="round"/>
<path d="M25.01 25.3V21.49" stroke="#0050D5" stroke-linejoin="round"/>
<path d="M14.6 23.69V34.5L25.01 40.49L35.4 34.5V23.69" stroke="#0050D5" stroke-linejoin="round"/>
<path d="M25.01 29.68V40.49" stroke="#0050D5" stroke-linejoin="round"/>
<path d="M14.6 15.5L24.99 9.51001L35.4 15.5" stroke="#0050D5" stroke-linejoin="round"/>
<path d="M31.58 21.49L35.4 23.69L25.01 29.68L14.6 23.69L18.42 21.49" stroke="#4AB0F5" stroke-linejoin="round"/>
<path d="M25.01 25.3V21.49" stroke="#0050D5" stroke-linejoin="round"/>
<path d="M35.4 15.5L25.01 21.49L14.6 15.5V19.31L25.01 25.3L35.4 19.31V15.5Z" stroke="#0050D5" stroke-linejoin="round"/>
<path d="M35.4 15.5L25.01 21.49L14.6 15.5V19.31L25.01 25.3L35.4 19.31V15.5Z" stroke="#0050D5" stroke-linejoin="round"/>
</g>
<defs>
<clipPath id="clip0_687_41">
<rect width="50" height="50" fill="white"/>
</clipPath>
</defs>
</svg>
