<svg width="50" height="50" viewBox="0 0 50 50" fill="none" xmlns="http://www.w3.org/2000/svg">
<g clip-path="url(#clip0_687_11)">
<path d="M45.5 1C47.43 1 49 2.57 49 4.5V45.5C49 47.43 47.43 49 45.5 49H4.5C2.57 49 1 47.43 1 45.5V4.5C1 2.57 2.57 1 4.5 1H45.5ZM45.5 0H4.5C2.01 0 0 2.01 0 4.5V45.5C0 47.99 2.01 50 4.5 50H45.5C47.99 50 50 47.99 50 45.5V4.5C50 2.01 47.99 0 45.5 0Z" fill="#0050D5"/>
<path d="M29.31 36.05V25.76L15.5 17.8V27.4C15.5 29.22 15.98 31 16.89 32.58L21.11 38.89C21.45 39.48 21.92 39.94 22.39 40.21C22.86 40.48 23.33 40.56 23.67 40.37L27.48 39.2C28.61 38.55 29.31 37.35 29.31 36.05Z" stroke="#0050D5" stroke-linejoin="round"/>
<path d="M34.5 22.77L29.31 25.77" stroke="#0050D5" stroke-linejoin="round"/>
<path d="M20.18 15.1L15.5 17.81" stroke="#0050D5" stroke-linejoin="round"/>
<path d="M27.48 39.21L32.67 36.21C33.8 35.57 34.5 34.36 34.5 33.06V22.77L29.76 20.04" stroke="#0050D5" stroke-linejoin="round"/>
<path d="M27.84 18.93L21.81 15.46" stroke="#0050D5" stroke-linejoin="round"/>
<path d="M24.98 9.86001C28.67 11.73 29.76 15.08 29.75 18.12C29.75 20.7 29.82 22.99 29.82 23.16C29.82 23.16 29.54 23.78 28.64 23.45C27.82 23.15 27.9 22.56 27.9 22.56C27.9 22.4 27.83 19.76 27.83 17.33C27.83 15.34 26.7 13.19 24.97 12.19C23.24 11.19 21.83 11.7 21.82 13.69L21.8 18.28C21.8 18.28 21.8 19.07 20.73 18.78C20.1 18.61 20.17 17.61 20.17 17.61L20.19 13.23C20.19 10.19 22.69 8.81001 24.98 9.86001Z" stroke="#4AB0F5" stroke-linejoin="round"/>
<path d="M22.15 26.25C22.99 26.74 23.67 27.91 23.67 28.88C23.67 29.85 22.98 30.23 22.14 29.74C21.3 29.25 20.63 28.08 20.63 27.13C20.63 26.18 21.32 25.77 22.15 26.26V26.25Z" stroke="#0050D5" stroke-linejoin="round"/>
<path d="M22.14 29.74V34.12" stroke="#0050D5" stroke-linejoin="round"/>
</g>
<defs>
<clipPath id="clip0_687_11">
<rect width="50" height="50" fill="white"/>
</clipPath>
</defs>
</svg>
