<svg width="50" height="50" viewBox="0 0 50 50" fill="none" xmlns="http://www.w3.org/2000/svg">
<g clip-path="url(#clip0_808_1978)">
<path d="M45.5 0H4.5C2.01472 0 0 2.01472 0 4.5V45.5C0 47.9853 2.01472 50 4.5 50H45.5C47.9853 50 50 47.9853 50 45.5V4.5C50 2.01472 47.9853 0 45.5 0Z" fill="#000E9C"/>
<path d="M25 33.41C27.7062 33.41 29.9 31.2162 29.9 28.51C29.9 25.8038 27.7062 23.61 25 23.61C22.2938 23.61 20.1 25.8038 20.1 28.51C20.1 31.2162 22.2938 33.41 25 33.41Z" stroke="#36E5FF" stroke-linejoin="round"/>
<path d="M25 33.41C26.0328 33.41 26.87 31.2162 26.87 28.51C26.87 25.8038 26.0328 23.61 25 23.61C23.9672 23.61 23.13 25.8038 23.13 28.51C23.13 31.2162 23.9672 33.41 25 33.41Z" stroke="#36E5FF" stroke-linejoin="round"/>
<path d="M29.9 30.06H20.1" stroke="#36E5FF" stroke-linejoin="round"/>
<path d="M20.1 26.95H29.9" stroke="#36E5FF" stroke-linejoin="round"/>
<circle cx="12.92" cy="17.02" r="0.75" fill="white"/>
<circle cx="15.88" cy="17.02" r="0.75" fill="white"/>
<circle cx="18.84" cy="17.02" r="0.75" fill="white"/>
<path d="M10.9 36.36L39.11 36.36C39.8556 36.36 40.46 35.7556 40.46 35.01V14.99C40.46 14.2444 39.8556 13.64 39.11 13.64L10.9 13.64C10.1544 13.64 9.55 14.2444 9.55 14.99L9.55 35.01C9.55 35.7556 10.1544 36.36 10.9 36.36Z" stroke="white" stroke-linejoin="round"/>
<path d="M9.70999 20.16H40.29" stroke="white" stroke-linejoin="round"/>
</g>
<defs>
<clipPath id="clip0_808_1978">
<rect width="50" height="50" fill="white"/>
</clipPath>
</defs>
</svg>
