<svg width="50" height="50" viewBox="0 0 50 50" fill="none" xmlns="http://www.w3.org/2000/svg">
<g clip-path="url(#clip0_1071_46)">
<path d="M45.5 0H4.5C2.01472 0 0 2.01472 0 4.5V45.5C0 47.9853 2.01472 50 4.5 50H45.5C47.9853 50 50 47.9853 50 45.5V4.5C50 2.01472 47.9853 0 45.5 0Z" fill="#030E9A"/>
<path d="M32.02 23.1C32.83 20.68 33.26 18.13 33.26 15.53C33.25 15.14 33.21 14.74 33.15 14.34C33.15 14.34 32.36 13.99 31.19 13.47C29.71 12.82 27.62 11.89 25.76 11.06C23.42 10.02 21.43 9.13 21.47 9.13H21.37L9.66002 14.34C9.61002 14.74 9.58002 15.13 9.58002 15.53C9.58002 18.36 10.09 21.13 11.05 23.73C12.27 26.68 12.23 26.39 12.91 27.66C14.94 31.12 17.83 34.14 21.42 36.45C24.2 34.67 26.56 32.45 28.43 29.94L29.56 28.42" stroke="white" stroke-linejoin="round"/>
<path d="M37.18 37.13H40.02C40.02 37.13 40.18 37.13 40.29 37.02C40.36 36.95 40.4 36.85 40.4 36.75V26.66C39.5 25.76 37.8 24.06 36.89 23.15H30.12C29.91 23.15 29.73 23.32 29.73 23.54V36.74C29.73 36.95 29.9 37.13 30.12 37.13H33.2" stroke="#36E5FF" stroke-linejoin="round"/>
<path d="M36.9401 23.15V26.62H40.4101" stroke="#36E5FF" stroke-linejoin="round"/>
<path d="M35.08 38.43C36.1073 38.43 36.94 37.5972 36.94 36.57C36.94 35.5427 36.1073 34.71 35.08 34.71C34.0528 34.71 33.22 35.5427 33.22 36.57C33.22 37.5972 34.0528 38.43 35.08 38.43Z" stroke="#36E5FF" stroke-linejoin="round"/>
<path d="M33.6201 37.8V40.86L35.0801 39.43L36.5501 40.86V37.71" stroke="#36E5FF" stroke-linejoin="round"/>
<path d="M32.11 29.31H37.98" stroke="#36E5FF" stroke-linejoin="round"/>
<path d="M32.11 31.66H37.98" stroke="#36E5FF" stroke-linejoin="round"/>
<path d="M22.67 31.43V22.2H24.25V20.69L26.91 16.76L21.43 13.35L15.95 16.76L18.61 20.69V22.2H20.19V31.43L21.43 32.89L22.67 31.43Z" stroke="#36E5FF" stroke-linejoin="round"/>
</g>
<defs>
<clipPath id="clip0_1071_46">
<rect width="50" height="50" fill="white"/>
</clipPath>
</defs>
</svg>
