<svg width="50" height="50" viewBox="0 0 50 50" fill="none" xmlns="http://www.w3.org/2000/svg">
<g clip-path="url(#clip0_808_1795)">
<path d="M45.5 0H4.5C2.01472 0 0 2.01472 0 4.5V45.5C0 47.9853 2.01472 50 4.5 50H45.5C47.9853 50 50 47.9853 50 45.5V4.5C50 2.01472 47.9853 0 45.5 0Z" fill="#000E9C"/>
<path d="M37.5 15.06H12.49C10.8608 15.06 9.54001 16.3808 9.54001 18.01V31.98C9.54001 33.6092 10.8608 34.93 12.49 34.93H37.5C39.1292 34.93 40.45 33.6092 40.45 31.98V18.01C40.45 16.3808 39.1292 15.06 37.5 15.06Z" stroke="white" stroke-linejoin="round"/>
<path d="M32.01 29.49H25.89" stroke="#36E5FF" stroke-linejoin="round"/>
<path d="M25.89 26.3H36.86" stroke="#36E5FF" stroke-linejoin="round"/>
<path d="M25.89 23.11H36.86" stroke="#36E5FF" stroke-linejoin="round"/>
<path d="M36.68 19.92H25.89" stroke="#36E5FF" stroke-linejoin="round"/>
<path d="M18.22 24.7C18.9546 24.7 19.55 24.1045 19.55 23.37C19.55 22.6355 18.9546 22.04 18.22 22.04C17.4855 22.04 16.89 22.6355 16.89 23.37C16.89 24.1045 17.4855 24.7 18.22 24.7Z" stroke="#36E5FF" stroke-linejoin="round"/>
<path d="M21.19 28.31L20.48 26.55C20.39 26.32 20.16 26.17 19.92 26.17H16.53C16.28 26.17 16.06 26.32 15.97 26.55L15.3 28.21" stroke="#36E5FF" stroke-linejoin="round"/>
<path d="M22.79 26.46C22.79 27.58 18.27 30.34 18.27 30.34C18.27 30.34 13.75 27.42 13.75 26.46V19.92H22.8V26.46H22.79Z" stroke="#36E5FF" stroke-linejoin="round"/>
</g>
<defs>
<clipPath id="clip0_808_1795">
<rect width="50" height="50" fill="white"/>
</clipPath>
</defs>
</svg>
