<svg width="50" height="50" viewBox="0 0 50 50" fill="none" xmlns="http://www.w3.org/2000/svg">
<g clip-path="url(#clip0_808_2002)">
<path d="M45.5 0H4.5C2.01472 0 0 2.01472 0 4.5V45.5C0 47.9853 2.01472 50 4.5 50H45.5C47.9853 50 50 47.9853 50 45.5V4.5C50 2.01472 47.9853 0 45.5 0Z" fill="#000E9C"/>
<path d="M36.43 26.73C37.68 23.6 38.34 20.25 38.34 16.81C38.34 16.36 38.31 15.91 38.25 15.47L25.05 9.60999H24.94C24.94 9.60999 22.75 10.61 20.11 11.78C18.01 12.71 15.66 13.75 13.99 14.49C12.67 15.07 11.78 15.46 11.78 15.46C11.71 15.91 11.67 16.36 11.65 16.8C11.65 19.99 12.22 23.11 13.31 26.05C13.42 26.35 13.53 26.64 13.65 26.94M15.19 30.11C15.26 30.24 15.34 30.36 15.41 30.49C17.69 34.39 20.95 37.79 25 40.39C29.06 37.79 32.32 34.37 34.61 30.46C34.74 30.23 34.87 30 35 29.77" stroke="white" stroke-linejoin="round"/>
<path d="M26.36 35.24V25.09H28.11V23.42L31.04 19.1L25 15.34L18.96 19.1L21.89 23.42V25.09H23.64V35.24L25 36.85L26.36 35.24Z" stroke="#36E5FF" stroke-linejoin="round"/>
<path d="M31.76 24.11L35.44 30.93L37.66 31.98L37.91 29.95L33.98 22.38L35.64 19.37L33.27 16.3L29.46 16.62L28.43 17.82" stroke="#36E5FF" stroke-linejoin="round"/>
<path d="M21.57 17.82L20.54 16.62L16.73 16.3L14.36 19.37L16.02 22.38L12.09 29.95L12.34 31.98L14.56 30.93L18.24 24.11" stroke="#36E5FF" stroke-linejoin="round"/>
</g>
<defs>
<clipPath id="clip0_808_2002">
<rect width="50" height="50" fill="white"/>
</clipPath>
</defs>
</svg>
