<svg width="50" height="50" viewBox="0 0 50 50" fill="none" xmlns="http://www.w3.org/2000/svg">
<g clip-path="url(#clip0_1071_61)">
<path d="M45.5 0H4.5C2.01472 0 0 2.01472 0 4.5V45.5C0 47.9853 2.01472 50 4.5 50H45.5C47.9853 50 50 47.9853 50 45.5V4.5C50 2.01472 47.9853 0 45.5 0Z" fill="#000E9C"/>
<path d="M28.05 23.99C28.46 22.42 28.68 20.79 28.68 19.13C28.68 18.81 28.66 18.49 28.62 18.17L19.15 13.96H19.07C19.07 13.96 17.5 14.68 15.6 15.52C14.1 16.19 12.41 16.94 11.21 17.46C10.27 17.88 9.62997 18.16 9.62997 18.16C9.57997 18.48 9.54998 18.81 9.53998 19.12C9.53998 21.41 9.94998 23.65 10.73 25.75C10.81 25.96 10.89 26.18 10.98 26.39M12.08 28.67C12.13 28.76 12.18 28.85 12.24 28.94C13.88 31.74 16.22 34.18 19.12 36.04C21.56 34.48 23.6 32.5 25.16 30.25" stroke="white" stroke-linejoin="round"/>
<path d="M20.09 32.35V25.06H21.34V23.86L23.44 20.77L19.11 18.07L14.78 20.77L16.88 23.86V25.06H18.14V32.35L19.11 33.5L20.09 32.35Z" stroke="#36E5FF" stroke-linejoin="round"/>
<path d="M26.03 24.03L25.55 23.12L26.74 20.96L25.05 18.76L22.31 18.99L21.58 19.85" stroke="#36E5FF" stroke-linejoin="round"/>
<path d="M16.65 19.85L15.92 18.99L13.18 18.76L11.48 20.96L12.67 23.12L9.84998 28.55L10.03 30.01L11.62 29.25L14.26 24.36" stroke="#36E5FF" stroke-linejoin="round"/>
<path d="M24.75 30.22L39.48 30.22C40.0213 30.22 40.46 29.7812 40.46 29.24V25.01C40.46 24.4688 40.0213 24.03 39.48 24.03H24.75C24.2088 24.03 23.77 24.4688 23.77 25.01V29.24C23.77 29.7812 24.2088 30.22 24.75 30.22Z" stroke="#36E5FF" stroke-linejoin="round"/>
<path d="M37.79 27.12H29.23" stroke="#36E5FF" stroke-linejoin="round"/>
<circle cx="26.89" cy="27.12" r="0.75" fill="#36E5FF"/>
</g>
<defs>
<clipPath id="clip0_1071_61">
<rect width="50" height="50" fill="white"/>
</clipPath>
</defs>
</svg>
