<svg width="50" height="50" viewBox="0 0 50 50" fill="none" xmlns="http://www.w3.org/2000/svg">
<g clip-path="url(#clip0_1071_75)">
<path d="M45.5 0H4.5C2.01472 0 0 2.01472 0 4.5V45.5C0 47.9853 2.01472 50 4.5 50H45.5C47.9853 50 50 47.9853 50 45.5V4.5C50 2.01472 47.9853 0 45.5 0Z" fill="#000E9C"/>
<path d="M27.4 27.1H38.74C39.7 27.1 40.49 27.88 40.49 28.85V36.35C40.49 37.31 39.71 38.1 38.74 38.1H11.26C10.3 38.1 9.51001 37.32 9.51001 36.35V28.85C9.51001 27.89 10.29 27.1 11.26 27.1H21.62" stroke="white" stroke-linejoin="round"/>
<path d="M34.39 32.6H20.38" stroke="white" stroke-linejoin="round"/>
<circle cx="15.61" cy="32.6" r="0.75" fill="white"/>
<path d="M33.67 16.34C33.94 15.05 34.08 13.74 34.08 12.4C34.08 12.08 34.06 11.76 34.02 11.44L24.55 7.23001H24.47C24.47 7.23001 22.9 7.95001 21 8.79001C19.5 9.46001 17.81 10.21 16.61 10.73C15.67 11.15 15.03 11.43 15.03 11.43C14.98 11.75 14.95 12.08 14.94 12.39C14.94 14.68 15.35 16.92 16.13 19.02C17.11 21.4 17.08 21.17 17.63 22.2C19.27 25 21.61 27.44 24.51 29.3C26.76 27.86 28.67 26.07 30.17 24.04" stroke="white" stroke-linejoin="round"/>
<path d="M18.84 24.05C20.35 26.08 22.26 27.87 24.5 29.31C27.4 27.45 29.74 25 31.38 22.21C31.93 21.18 31.9 21.42 32.88 19.03C33.66 16.92 34.07 14.68 34.07 12.4C34.06 12.08 34.03 11.76 33.98 11.44C33.98 11.44 33.34 11.16 32.4 10.74C31.2 10.21 29.52 9.45999 28.01 8.79999C26.11 7.95999 24.51 7.23999 24.54 7.23999H24.46L14.99 11.45C14.95 11.77 14.93 12.09 14.93 12.41C14.93 13.75 15.07 15.06 15.34 16.35" stroke="white" stroke-linejoin="round"/>
<path d="M25.51 25.25V17.79H26.79V16.56L28.94 13.39L24.51 10.63L20.07 13.39L22.23 16.56V17.79H23.51V25.25L24.51 26.42L25.51 25.25Z" stroke="#36E5FF" stroke-linejoin="round"/>
</g>
<defs>
<clipPath id="clip0_1071_75">
<rect width="50" height="50" fill="white"/>
</clipPath>
</defs>
</svg>
