<svg width="50" height="50" viewBox="0 0 50 50" fill="none" xmlns="http://www.w3.org/2000/svg">
<g clip-path="url(#clip0_1069_2)">
<path d="M45.5 0H4.5C2.01472 0 0 2.01472 0 4.5V45.5C0 47.9853 2.01472 50 4.5 50H45.5C47.9853 50 50 47.9853 50 45.5V4.5C50 2.01472 47.9853 0 45.5 0Z" fill="#000E9C"/>
<path d="M28.27 23.07C28.54 21.78 28.68 20.47 28.68 19.13C28.68 18.81 28.66 18.49 28.62 18.17L19.15 13.96H19.07C19.07 13.96 17.5 14.68 15.6 15.52C14.1 16.19 12.41 16.94 11.21 17.46C10.27 17.88 9.62998 18.16 9.62998 18.16C9.57998 18.48 9.54998 18.81 9.53998 19.12C9.53998 21.41 9.94998 23.65 10.73 25.75C11.71 28.13 11.68 27.9 12.23 28.93C13.87 31.73 16.21 34.17 19.11 36.03C21.36 34.59 23.27 32.8 24.77 30.77" stroke="white" stroke-linejoin="round"/>
<path d="M20.12 31.97V24.52H21.4V23.29L23.55 20.12L19.11 17.36L14.68 20.12L16.83 23.29V24.52H18.11V31.97L19.11 33.15L20.12 31.97Z" stroke="#36E5FF" stroke-linejoin="round"/>
<path d="M40.46 30.99H24.44V23.26H40.46" stroke="#36E5FF" stroke-linejoin="round"/>
<path d="M28.43 25.3V29.03" stroke="#36E5FF" stroke-linejoin="round"/>
<path d="M30.02 26.19L26.84 28.14" stroke="#36E5FF" stroke-linejoin="round"/>
<path d="M26.84 26.19L30.02 28.14" stroke="#36E5FF" stroke-linejoin="round"/>
<path d="M33.06 25.3V29.03" stroke="#36E5FF" stroke-linejoin="round"/>
<path d="M34.65 26.19L31.47 28.14" stroke="#36E5FF" stroke-linejoin="round"/>
<path d="M31.47 26.19L34.65 28.14" stroke="#36E5FF" stroke-linejoin="round"/>
<path d="M37.69 25.3V29.03" stroke="#36E5FF" stroke-linejoin="round"/>
<path d="M39.28 26.19L36.1 28.14" stroke="#36E5FF" stroke-linejoin="round"/>
<path d="M36.1 26.19L39.28 28.14" stroke="#36E5FF" stroke-linejoin="round"/>
</g>
<defs>
<clipPath id="clip0_1069_2">
<rect width="50" height="50" fill="white"/>
</clipPath>
</defs>
</svg>
