<svg width="50" height="50" viewBox="0 0 50 50" fill="none" xmlns="http://www.w3.org/2000/svg">
<g clip-path="url(#clip0_808_2251)">
<path d="M45.5 0H4.5C2.01472 0 0 2.01472 0 4.5V45.5C0 47.9853 2.01472 50 4.5 50H45.5C47.9853 50 50 47.9853 50 45.5V4.5C50 2.01472 47.9853 0 45.5 0Z" fill="#000E9C"/>
<circle cx="12.92" cy="16.88" r="0.75" fill="white"/>
<circle cx="15.88" cy="16.88" r="0.75" fill="white"/>
<circle cx="18.84" cy="16.88" r="0.75" fill="white"/>
<path d="M10.9 36.22L39.11 36.22C39.8556 36.22 40.46 35.6156 40.46 34.87V14.85C40.46 14.1044 39.8556 13.5 39.11 13.5L10.9 13.5C10.1544 13.5 9.54999 14.1044 9.54999 14.85L9.54999 34.87C9.54999 35.6156 10.1544 36.22 10.9 36.22Z" stroke="white" stroke-linejoin="round"/>
<path d="M9.70999 20.02H40.29" stroke="white" stroke-linejoin="round"/>
<path d="M20.4597 22.9353H16.2266V27.1684H20.4597V22.9353Z" stroke="#36E5FF" stroke-linejoin="round"/>
<path d="M20.4597 29.3175H16.2266V33.5506H20.4597V29.3175Z" stroke="#36E5FF" stroke-linejoin="round"/>
<path d="M27.1163 22.9353H22.8832V27.1684H27.1163V22.9353Z" stroke="#36E5FF" stroke-linejoin="round"/>
<path d="M33.7734 22.9353H29.5403V27.1684H33.7734V22.9353Z" stroke="#36E5FF" stroke-linejoin="round"/>
<path d="M27.1163 29.3175H22.8832V33.5506H27.1163V29.3175Z" stroke="#36E5FF" stroke-linejoin="round"/>
<path d="M33.7734 29.3175H29.5403V33.5506H33.7734V29.3175Z" stroke="#36E5FF" stroke-linejoin="round"/>
</g>
<defs>
<clipPath id="clip0_808_2251">
<rect width="50" height="50" fill="white"/>
</clipPath>
</defs>
</svg>
