<svg width="50" height="50" viewBox="0 0 50 50" fill="none" xmlns="http://www.w3.org/2000/svg">
<g clip-path="url(#clip0_808_2242)">
<path d="M45.5 0H4.5C2.01472 0 0 2.01472 0 4.5V45.5C0 47.9853 2.01472 50 4.5 50H45.5C47.9853 50 50 47.9853 50 45.5V4.5C50 2.01472 47.9853 0 45.5 0Z" fill="#000E9C"/>
<path d="M17.26 22.01C18.7236 22.01 19.91 20.8235 19.91 19.36C19.91 17.8964 18.7236 16.71 17.26 16.71C15.7965 16.71 14.61 17.8964 14.61 19.36C14.61 20.8235 15.7965 22.01 17.26 22.01Z" stroke="#36E5FF" stroke-linejoin="round"/>
<path d="M11.84 16.56C11.68 16.86 11.55 17.18 11.45 17.51C11.31 17.96 10.89 18.28 10.41 18.28H9.91003C9.70003 18.28 9.53003 18.45 9.53003 18.66V20.07C9.53003 20.28 9.70003 20.45 9.91003 20.45H10.41C10.89 20.45 11.31 20.76 11.45 21.22C11.55 21.55 11.69 21.87 11.84 22.17C12.06 22.59 11.98 23.11 11.65 23.45L11.29 23.81C11.14 23.96 11.14 24.2 11.29 24.35L12.28 25.34C12.43 25.49 12.67 25.49 12.82 25.34L13.18 24.98C13.52 24.64 14.04 24.57 14.46 24.79C14.76 24.95 15.08 25.08 15.41 25.18C15.86 25.32 16.18 25.74 16.18 26.22V26.72C16.18 26.93 16.35 27.1 16.56 27.1H17.97C18.18 27.1 18.35 26.93 18.35 26.72V26.22C18.35 25.74 18.66 25.32 19.12 25.18C19.45 25.08 19.77 24.94 20.07 24.79C20.49 24.57 21.01 24.65 21.35 24.98L21.71 25.34C21.86 25.49 22.1 25.49 22.25 25.34L23.24 24.35C23.39 24.2 23.39 23.96 23.24 23.81L22.88 23.45C22.54 23.11 22.47 22.59 22.69 22.17C22.85 21.87 22.98 21.55 23.08 21.22C23.22 20.77 23.64 20.45 24.12 20.45H24.62C24.83 20.45 25 20.28 25 20.07V18.66C25 18.45 24.83 18.28 24.62 18.28H24.12C23.64 18.28 23.22 17.97 23.08 17.51C22.98 17.18 22.84 16.86 22.69 16.56C22.47 16.14 22.55 15.62 22.88 15.28L23.24 14.92C23.39 14.77 23.39 14.53 23.24 14.38L22.25 13.39C22.1 13.24 21.86 13.24 21.71 13.39L21.35 13.75C21.01 14.09 20.49 14.16 20.07 13.94C19.77 13.78 19.45 13.65 19.12 13.55C18.67 13.41 18.35 12.99 18.35 12.51V12.01C18.35 11.8 18.18 11.63 17.97 11.63H16.56C16.35 11.63 16.18 11.8 16.18 12.01V12.51C16.18 12.99 15.87 13.41 15.41 13.55C15.08 13.65 14.76 13.79 14.46 13.94C14.04 14.16 13.52 14.08 13.18 13.75L12.82 13.39C12.67 13.24 12.43 13.24 12.28 13.39L11.29 14.38C11.14 14.53 11.14 14.77 11.29 14.92L11.65 15.28C11.99 15.62 12.06 16.14 11.84 16.56Z" stroke="#36E5FF" stroke-linejoin="round"/>
<path d="M30.65 32.38C32.7321 32.38 34.42 30.6921 34.42 28.61C34.42 26.5279 32.7321 24.84 30.65 24.84C28.5679 24.84 26.88 26.5279 26.88 28.61C26.88 30.6921 28.5679 32.38 30.65 32.38Z" stroke="white" stroke-linejoin="round"/>
<path d="M23.82 25.08C23.62 25.46 23.46 25.86 23.32 26.28C23.14 26.85 22.61 27.25 22.01 27.25H21.37C21.1 27.25 20.89 27.47 20.89 27.73V29.5C20.89 29.77 21.11 29.98 21.37 29.98H22.01C22.61 29.98 23.14 30.37 23.32 30.95C23.45 31.37 23.62 31.77 23.82 32.15C24.1 32.69 24 33.34 23.58 33.77L23.13 34.22C22.94 34.41 22.94 34.71 23.13 34.9L24.38 36.15C24.57 36.34 24.87 36.34 25.06 36.15L25.51 35.7C25.94 35.27 26.59 35.18 27.13 35.46C27.51 35.66 27.91 35.82 28.33 35.96C28.9 36.14 29.3 36.67 29.3 37.27V37.91C29.3 38.18 29.52 38.39 29.78 38.39H31.55C31.82 38.39 32.03 38.17 32.03 37.91V37.27C32.03 36.67 32.42 36.14 33 35.96C33.42 35.83 33.82 35.66 34.2 35.46C34.74 35.18 35.39 35.28 35.82 35.7L36.27 36.15C36.46 36.34 36.76 36.34 36.95 36.15L38.2 34.9C38.39 34.71 38.39 34.41 38.2 34.22L37.75 33.77C37.32 33.34 37.23 32.69 37.51 32.15C37.71 31.77 37.87 31.37 38.01 30.95C38.19 30.38 38.72 29.98 39.32 29.98H39.96C40.23 29.98 40.44 29.76 40.44 29.5V27.73C40.44 27.46 40.22 27.25 39.96 27.25H39.32C38.72 27.25 38.19 26.86 38.01 26.28C37.88 25.86 37.71 25.46 37.51 25.08C37.23 24.54 37.33 23.89 37.75 23.46L38.2 23.01C38.39 22.82 38.39 22.52 38.2 22.33L36.95 21.08C36.76 20.89 36.46 20.89 36.27 21.08L35.82 21.53C35.39 21.96 34.74 22.05 34.2 21.77C33.82 21.57 33.42 21.41 33 21.27C32.43 21.09 32.03 20.56 32.03 19.96V19.32C32.03 19.05 31.81 18.84 31.55 18.84H29.78C29.51 18.84 29.3 19.06 29.3 19.32V19.96C29.3 20.56 28.91 21.09 28.33 21.27C27.91 21.4 27.51 21.57 27.13 21.77C26.59 22.05 25.94 21.95 25.51 21.53L25.06 21.08C24.87 20.89 24.57 20.89 24.38 21.08L23.13 22.33C22.94 22.52 22.94 22.82 23.13 23.01L23.58 23.46C24.01 23.89 24.1 24.54 23.82 25.08Z" stroke="white" stroke-linejoin="round"/>
</g>
<defs>
<clipPath id="clip0_808_2242">
<rect width="50" height="50" fill="white"/>
</clipPath>
</defs>
</svg>
