<svg width="50" height="50" viewBox="0 0 50 50" fill="none" xmlns="http://www.w3.org/2000/svg">
<g clip-path="url(#clip0_808_2267)">
<path d="M45.5 0H4.5C2.01472 0 0 2.01472 0 4.5V45.5C0 47.9853 2.01472 50 4.5 50H45.5C47.9853 50 50 47.9853 50 45.5V4.5C50 2.01472 47.9853 0 45.5 0Z" fill="#000E9C"/>
<path d="M12.6801 27.76V33.35L25.0001 40.49L37.3201 33.35V27.76" stroke="white" stroke-linejoin="round"/>
<path d="M34.3702 17.61L37.3202 19.32L25.0002 26.45" stroke="white" stroke-linejoin="round"/>
<path d="M25.0001 40.49V26.45L12.6801 19.32L15.6301 17.61" stroke="white" stroke-linejoin="round"/>
<path d="M25.0002 26.45L21.9802 33.22L9.66016 26.1L12.6802 19.32" stroke="white" stroke-linejoin="round"/>
<path d="M37.3202 19.32L40.3402 26.1L28.0202 33.22L25.0002 26.45" stroke="white" stroke-linejoin="round"/>
<path d="M34.3701 21.03V11.75C34.3701 10.51 33.3601 9.5 32.1201 9.5H17.8701C16.6301 9.5 15.6201 10.51 15.6201 11.75V20.98" stroke="white" stroke-linejoin="round"/>
<path d="M19.1798 16.82C19.3498 16.96 19.5398 17.08 19.7398 17.17C19.9498 17.26 20.1498 17.31 20.3398 17.31C20.5598 17.31 20.7298 17.27 20.8398 17.19C20.9498 17.11 20.9998 17 20.9998 16.86C20.9998 16.79 20.9798 16.72 20.9498 16.67C20.9198 16.62 20.8698 16.57 20.8098 16.53C20.7498 16.49 20.6798 16.45 20.5898 16.41C20.5098 16.37 20.4098 16.33 20.3098 16.29L19.6898 16.03C19.5698 15.98 19.4498 15.92 19.3398 15.84C19.2298 15.76 19.1298 15.67 19.0398 15.57C18.9498 15.47 18.8798 15.35 18.8298 15.21C18.7798 15.07 18.7498 14.92 18.7498 14.74C18.7498 14.55 18.7898 14.36 18.8698 14.19C18.9498 14.02 19.0698 13.87 19.2198 13.74C19.3698 13.61 19.5498 13.51 19.7498 13.44C19.9498 13.37 20.1798 13.33 20.4298 13.33C20.6998 13.33 20.9798 13.38 21.2398 13.49C21.5098 13.6 21.7398 13.75 21.9498 13.95L21.4098 14.62C21.2598 14.5 21.0998 14.41 20.9498 14.34C20.7998 14.27 20.6198 14.24 20.4398 14.24C20.2598 14.24 20.1098 14.28 19.9998 14.35C19.8898 14.42 19.8398 14.53 19.8398 14.66C19.8398 14.73 19.8598 14.79 19.8898 14.84C19.9298 14.89 19.9798 14.94 20.0398 14.98C20.1098 15.02 20.1798 15.06 20.2698 15.1C20.3598 15.14 20.4498 15.18 20.5498 15.22L21.1598 15.47C21.4498 15.59 21.6798 15.75 21.8398 15.95C22.0098 16.15 22.0898 16.42 22.0898 16.75C22.0898 16.95 22.0498 17.13 21.9698 17.31C21.8898 17.49 21.7698 17.64 21.6198 17.77C21.4698 17.9 21.2798 18.01 21.0598 18.09C20.8398 18.17 20.5898 18.21 20.3098 18.21C19.9998 18.21 19.6898 18.15 19.3898 18.04C19.0798 17.93 18.8098 17.76 18.5698 17.53L19.1798 16.8V16.82Z" fill="#36E5FF"/>
<path d="M22.8998 13.42H24.2298C24.5898 13.42 24.9198 13.47 25.2098 13.56C25.4998 13.65 25.7498 13.79 25.9598 13.98C26.1698 14.17 26.3298 14.41 26.4398 14.71C26.5498 15 26.6098 15.35 26.6098 15.76C26.6098 16.17 26.5498 16.52 26.4398 16.82C26.3298 17.12 26.1698 17.37 25.9698 17.56C25.7698 17.76 25.5198 17.9 25.2398 18C24.9598 18.1 24.6398 18.14 24.2998 18.14H22.9098V13.42H22.8998ZM24.1698 17.28C24.3698 17.28 24.5598 17.25 24.7198 17.2C24.8798 17.15 25.0198 17.06 25.1398 16.94C25.2598 16.82 25.3498 16.67 25.4098 16.47C25.4798 16.28 25.5098 16.04 25.5098 15.75C25.5098 15.46 25.4798 15.23 25.4098 15.04C25.3398 14.85 25.2498 14.7 25.1398 14.58C25.0198 14.47 24.8798 14.39 24.7198 14.34C24.5598 14.29 24.3698 14.27 24.1698 14.27H23.9698V17.27H24.1698V17.28Z" fill="#36E5FF"/>
<path d="M27.4998 13.42H28.5598V15.35H28.5898L29.9898 13.42H31.1598L29.7298 15.3L31.4198 18.14H30.2498L29.0998 16.15L28.5498 16.87V18.14H27.4898V13.42H27.4998Z" fill="#36E5FF"/>
</g>
<defs>
<clipPath id="clip0_808_2267">
<rect width="50" height="50" fill="white"/>
</clipPath>
</defs>
</svg>
