<svg width="50" height="50" viewBox="0 0 50 50" fill="none" xmlns="http://www.w3.org/2000/svg">
<g clip-path="url(#clip0_808_2101)">
<path d="M45.5 0H4.5C2.01472 0 0 2.01472 0 4.5V45.5C0 47.9853 2.01472 50 4.5 50H45.5C47.9853 50 50 47.9853 50 45.5V4.5C50 2.01472 47.9853 0 45.5 0Z" fill="#000E9C"/>
<circle cx="12.92" cy="14.78" r="0.75" fill="white"/>
<circle cx="15.88" cy="14.78" r="0.75" fill="white"/>
<circle cx="18.84" cy="14.78" r="0.75" fill="white"/>
<path d="M14.24 34.12H10.9C10.15 34.12 9.54999 33.51 9.54999 32.77V12.75C9.54999 12 10.16 11.4 10.9 11.4H39.11C39.86 11.4 40.46 12.01 40.46 12.75V32.77C40.46 33.52 39.85 34.12 39.11 34.12H23.48" stroke="white" stroke-linejoin="round"/>
<path d="M9.70996 17.93H40.29" stroke="white" stroke-linejoin="round"/>
<path d="M36.43 28.92V31.74" stroke="#36E5FF" stroke-linejoin="round"/>
<path d="M33.75 31.74V24.36" stroke="#36E5FF" stroke-linejoin="round"/>
<path d="M31.07 31.74V20.18" stroke="#36E5FF" stroke-linejoin="round"/>
<path d="M28.38 23.07V24.64V31.74" stroke="#36E5FF" stroke-linejoin="round"/>
<path d="M14.54 34.14L10.09 38.6" stroke="white" stroke-linejoin="round"/>
<path d="M18.99 25.6C16.73 25.6 14.89 27.43 14.89 29.7" stroke="white" stroke-linejoin="round"/>
<path d="M18.9899 36C22.4693 36 25.2899 33.1794 25.2899 29.7C25.2899 26.2206 22.4693 23.4 18.9899 23.4C15.5106 23.4 12.6899 26.2206 12.6899 29.7C12.6899 33.1794 15.5106 36 18.9899 36Z" stroke="white" stroke-linejoin="round"/>
</g>
<defs>
<clipPath id="clip0_808_2101">
<rect width="50" height="50" fill="white"/>
</clipPath>
</defs>
</svg>
