<svg width="50" height="50" viewBox="0 0 50 50" fill="none" xmlns="http://www.w3.org/2000/svg">
<g clip-path="url(#clip0_808_2061)">
<path d="M45.5 0H4.5C2.01472 0 0 2.01472 0 4.5V45.5C0 47.9853 2.01472 50 4.5 50H45.5C47.9853 50 50 47.9853 50 45.5V4.5C50 2.01472 47.9853 0 45.5 0Z" fill="#000E9C"/>
<path d="M25 34.15C26.5685 34.15 27.84 32.8785 27.84 31.31C27.84 29.7415 26.5685 28.47 25 28.47C23.4315 28.47 22.16 29.7415 22.16 31.31C22.16 32.8785 23.4315 34.15 25 34.15Z" stroke="white" stroke-miterlimit="10" stroke-linecap="round"/>
<path d="M38.34 24.83H11.66C10.5002 24.83 9.56 25.7702 9.56 26.93V35.39C9.56 36.5498 10.5002 37.49 11.66 37.49H38.34C39.4998 37.49 40.44 36.5498 40.44 35.39V26.93C40.44 25.7702 39.4998 24.83 38.34 24.83Z" stroke="white" stroke-miterlimit="10" stroke-linecap="round"/>
<path d="M37.49 37.49V38.34C37.49 39.5 36.55 40.44 35.39 40.44H14.61C13.45 40.44 12.51 39.5 12.51 38.34V37.49" stroke="white" stroke-miterlimit="10" stroke-linecap="round"/>
<path d="M20.03 20.61C20.23 20.3 20.46 20.01 20.72 19.74C23.09 17.37 26.93 17.37 29.31 19.74C29.56 20.01 29.79 20.29 29.99 20.6" stroke="#36E5FF" stroke-miterlimit="10" stroke-linecap="round"/>
<path d="M17.15 17.47C17.21 17.4 17.28 17.31 17.37 17.21C17.43 17.14 17.46 17.1 17.5 17.06C17.76 16.78 18.03 16.51 18.32 16.26C22.15 12.94 27.86 12.94 31.69 16.26C31.98 16.51 32.25 16.79 32.52 17.07C32.63 17.2 32.74 17.33 32.85 17.46" stroke="#36E5FF" stroke-miterlimit="10" stroke-linecap="round"/>
<path d="M14.27 14.33C14.36 14.24 14.46 14.14 14.59 14C14.68 13.9 14.72 13.86 14.78 13.8C20.43 8.13999 29.6 8.13999 35.25 13.8C35.41 13.96 35.57 14.13 35.73 14.3" stroke="#36E5FF" stroke-miterlimit="10" stroke-linecap="round"/>
</g>
<defs>
<clipPath id="clip0_808_2061">
<rect width="50" height="50" fill="white"/>
</clipPath>
</defs>
</svg>
