<svg width="50" height="50" viewBox="0 0 50 50" fill="none" xmlns="http://www.w3.org/2000/svg">
<g clip-path="url(#clip0_808_1254)">
<path d="M45.5 0H4.5C2.01472 0 0 2.01472 0 4.5V45.5C0 47.9853 2.01472 50 4.5 50H45.5C47.9853 50 50 47.9853 50 45.5V4.5C50 2.01472 47.9853 0 45.5 0Z" fill="#000E9C"/>
<path d="M17.5001 31.73H16.2701C13.2101 31.72 10.5401 29.66 9.75007 26.71C8.99007 23.88 10.1301 20.9 12.5501 19.3C12.0801 17.46 12.7401 15.5 14.2601 14.32C15.7401 13.17 17.7401 12.99 19.3901 13.83C21.3101 10.55 25.1701 8.87002 28.9101 9.76002C32.8201 10.68 35.5901 14.15 35.6301 18.17V18.45C38.7701 19.37 40.8301 22.43 40.4501 25.73C40.0601 29.15 37.1601 31.74 33.7201 31.74H32.3301" stroke="white" stroke-linejoin="round"/>
<path d="M30.7801 20.63H19.2301C18.374 20.63 17.6801 21.324 17.6801 22.18V38.93C17.6801 39.7861 18.374 40.48 19.2301 40.48H30.7801C31.6361 40.48 32.3301 39.7861 32.3301 38.93V22.18C32.3301 21.324 31.6361 20.63 30.7801 20.63Z" stroke="#36E5FF" stroke-linejoin="round"/>
<path d="M27.3201 33.12C28.9201 32.28 30.0101 30.61 30.0101 28.68C30.0101 25.92 27.7701 23.67 25.0001 23.67C22.2301 23.67 19.9901 25.91 19.9901 28.68C19.9901 31.45 22.2301 33.69 25.0001 33.69C25.0701 33.69 25.1501 33.69 25.2201 33.69" stroke="#36E5FF" stroke-linejoin="round"/>
<path d="M25.0001 30.1C25.7843 30.1 26.4201 29.4643 26.4201 28.68C26.4201 27.8958 25.7843 27.26 25.0001 27.26C24.2158 27.26 23.5801 27.8958 23.5801 28.68C23.5801 29.4643 24.2158 30.1 25.0001 30.1Z" stroke="#36E5FF" stroke-linejoin="round"/>
<path fill-rule="evenodd" clip-rule="evenodd" d="M24.77 32.09C25.47 31.47 29.1 34.61 29.88 35.31C30.06 35.47 30.2 35.66 30.27 35.89C30.38 36.22 30.38 36.71 29.88 37.21C29.32 37.77 28.76 37.68 28.4 37.54C28.2 37.46 28.02 37.32 27.88 37.15C27.18 36.31 24.18 32.61 24.76 32.1L24.77 32.09Z" stroke="#36E5FF" stroke-linejoin="round"/>
</g>
<defs>
<clipPath id="clip0_808_1254">
<rect width="50" height="50" fill="white"/>
</clipPath>
</defs>
</svg>
