<svg width="50" height="50" viewBox="0 0 50 50" fill="none" xmlns="http://www.w3.org/2000/svg">
<g clip-path="url(#clip0_808_1527)">
<path d="M45.5 0H4.5C2.01472 0 0 2.01472 0 4.5V45.5C0 47.9853 2.01472 50 4.5 50H45.5C47.9853 50 50 47.9853 50 45.5V4.5C50 2.01472 47.9853 0 45.5 0Z" fill="#000E9C"/>
<path d="M24.9941 40.4782C29.9978 40.4782 34.0541 36.4219 34.0541 31.4182C34.0541 26.4145 29.9978 22.3582 24.9941 22.3582C19.9904 22.3582 15.9341 26.4145 15.9341 31.4182C15.9341 36.4219 19.9904 40.4782 24.9941 40.4782Z" stroke="#36E5FF" stroke-linejoin="round"/>
<path d="M16.2641 31.7282C13.2041 31.7182 10.5341 29.6582 9.74408 26.7082C8.98408 23.8782 10.1241 20.8982 12.5441 19.2982C12.0741 17.4582 12.7341 15.4982 14.2541 14.3182C15.7341 13.1682 17.7341 12.9882 19.3841 13.8282C21.3041 10.5482 25.1641 8.86822 28.9041 9.75822C32.8141 10.6782 35.5841 14.1482 35.6241 18.1682V18.4482C38.7641 19.3682 40.8241 22.4282 40.4441 25.7282C40.0541 29.1482 37.1541 31.7382 33.7141 31.7382" stroke="white" stroke-linejoin="round"/>
<path d="M24.9941 33.7582C26.2864 33.7582 27.3341 32.7106 27.3341 31.4182C27.3341 30.1259 26.2864 29.0782 24.9941 29.0782C23.7017 29.0782 22.6541 30.1259 22.6541 31.4182C22.6541 32.7106 23.7017 33.7582 24.9941 33.7582Z" stroke="#36E5FF" stroke-linejoin="round"/>
</g>
<defs>
<clipPath id="clip0_808_1527">
<rect width="50" height="50" fill="white"/>
</clipPath>
</defs>
</svg>
