<svg width="50" height="50" viewBox="0 0 50 50" fill="none" xmlns="http://www.w3.org/2000/svg">
<g clip-path="url(#clip0_808_1411)">
<path d="M45.5 0H4.5C2.01472 0 0 2.01472 0 4.5V45.5C0 47.9853 2.01472 50 4.5 50H45.5C47.9853 50 50 47.9853 50 45.5V4.5C50 2.01472 47.9853 0 45.5 0Z" fill="#0052DC"/>
<path d="M11.24 14.82C11.24 17.78 17.18 20.18 24.51 20.18C31.84 20.18 37.78 17.78 37.78 14.82" stroke="white" stroke-linejoin="round"/>
<path d="M37.78 14.82C37.78 11.86 31.84 9.45999 24.51 9.45999C17.18 9.45999 11.24 11.86 11.24 14.82" stroke="white" stroke-linejoin="round"/>
<path d="M11.24 14.82L15.48 36.9C15.48 38.91 19.52 40.55 24.51 40.55C29.5 40.55 33.54 38.92 33.54 36.9L37.78 14.82" stroke="white" stroke-linejoin="round"/>
<path d="M24.41 24.1C25.0727 24.1 25.61 23.5627 25.61 22.9C25.61 22.2373 25.0727 21.7 24.41 21.7C23.7472 21.7 23.21 22.2373 23.21 22.9C23.21 23.5627 23.7472 24.1 24.41 24.1Z" stroke="white" stroke-linejoin="round"/>
<path d="M25.61 23.62C25.61 23.62 38.01 32.35 38.74 27.54C38.94 26.19 37.61 24.06 36.62 22.51L36.38 22.12" stroke="white" stroke-linejoin="round"/>
<path d="M27.41 33.9L21.59 30.87" stroke="#36E5FF" stroke-linejoin="round"/>
<path d="M24.49 35.69V29.1" stroke="#36E5FF" stroke-linejoin="round"/>
<path d="M27.2999 30.7L21.6799 34.09" stroke="#36E5FF" stroke-linejoin="round"/>
<path d="M22.8099 37.37L24.4899 35.69L26.1699 37.37" stroke="#36E5FF" stroke-linejoin="round"/>
<path d="M26.1599 27.42L24.4899 29.1L22.8099 27.42" stroke="#36E5FF" stroke-linejoin="round"/>
<path d="M28.12 36.14L27.41 33.87L29.67 33.17" stroke="#36E5FF" stroke-linejoin="round"/>
<path d="M20.91 28.62L21.61 30.88L19.35 31.59" stroke="#36E5FF" stroke-linejoin="round"/>
<path d="M19.35 33.64L21.68 34.09L21.23 36.42" stroke="#36E5FF" stroke-linejoin="round"/>
<path d="M29.6299 31.15L27.2999 30.7L27.7499 28.37" stroke="#36E5FF" stroke-linejoin="round"/>
</g>
<defs>
<clipPath id="clip0_808_1411">
<rect width="50" height="50" fill="white"/>
</clipPath>
</defs>
</svg>
