<svg width="50" height="50" viewBox="0 0 50 50" fill="none" xmlns="http://www.w3.org/2000/svg">
<g clip-path="url(#clip0_808_1461)">
<path d="M45.5 0H4.5C2.01472 0 0 2.01472 0 4.5V45.5C0 47.9853 2.01472 50 4.5 50H45.5C47.9853 50 50 47.9853 50 45.5V4.5C50 2.01472 47.9853 0 45.5 0Z" fill="#000E9C"/>
<path d="M21.51 13.62V9.46002H33.53L40.53 16.47V36.43H36.33" stroke="white" stroke-linejoin="round"/>
<path d="M17.2999 33.53V40.54H36.3299V20.63L29.3199 13.62H17.2999V23.32" stroke="white" stroke-linejoin="round"/>
<path d="M36.3299 20.63H29.3199V13.62" stroke="white" stroke-linejoin="round"/>
<path d="M19.9799 35.56C20.9851 35.56 21.7999 34.7452 21.7999 33.74C21.7999 32.7349 20.9851 31.92 19.9799 31.92C18.9748 31.92 18.1599 32.7349 18.1599 33.74C18.1599 34.7452 18.9748 35.56 19.9799 35.56Z" stroke="#36E5FF" stroke-linejoin="round"/>
<path d="M21.14 32.35L25.6 27.9" stroke="#36E5FF" stroke-linejoin="round"/>
<path d="M21.8 33.72H30.67C30.67 27.86 25.92 23.12 20.07 23.12C14.22 23.12 9.46997 27.87 9.46997 33.72H18.17" stroke="#36E5FF" stroke-linejoin="round"/>
</g>
<defs>
<clipPath id="clip0_808_1461">
<rect width="50" height="50" fill="white"/>
</clipPath>
</defs>
</svg>
