<svg width="50" height="50" viewBox="0 0 50 50" fill="none" xmlns="http://www.w3.org/2000/svg">
<g clip-path="url(#clip0_1146_2)">
<path d="M45.5 0H4.5C2.01472 0 0 2.01472 0 4.5V45.5C0 47.9853 2.01472 50 4.5 50H45.5C47.9853 50 50 47.9853 50 45.5V4.5C50 2.01472 47.9853 0 45.5 0Z" fill="#000E9C"/>
<path d="M11.24 14.82C11.24 17.78 17.18 20.18 24.51 20.18C31.84 20.18 37.78 17.78 37.78 14.82" stroke="white" stroke-linejoin="round"/>
<path d="M37.78 14.82C37.78 11.86 31.84 9.46002 24.51 9.46002C17.18 9.46002 11.24 11.86 11.24 14.82" stroke="white" stroke-linejoin="round"/>
<path d="M11.24 14.82L15.48 36.9C15.48 38.91 19.52 40.55 24.51 40.55C29.5 40.55 33.54 38.92 33.54 36.9L37.78 14.82" stroke="white" stroke-linejoin="round"/>
<path d="M21.8199 38.01L24.5599 32.49" stroke="#36E5FF" stroke-linejoin="round"/>
<path d="M30.4599 32.12L27.1699 27.21L21.2799 27.57L24.5599 32.49L30.4599 32.12Z" stroke="#36E5FF" stroke-linejoin="round"/>
<path d="M30.4599 32.12L27.7499 37.59L21.8199 38.01L18.5699 33.04L21.2799 27.57" stroke="#36E5FF" stroke-linejoin="round"/>
<path d="M24.41 24.1C25.0727 24.1 25.61 23.5627 25.61 22.9C25.61 22.2373 25.0727 21.7 24.41 21.7C23.7472 21.7 23.21 22.2373 23.21 22.9C23.21 23.5627 23.7472 24.1 24.41 24.1Z" stroke="white" stroke-linejoin="round"/>
<path d="M25.61 23.62C25.61 23.62 38.01 32.35 38.74 27.54C38.94 26.19 37.61 24.06 36.62 22.51L36.38 22.12" stroke="white" stroke-linejoin="round"/>
</g>
<defs>
<clipPath id="clip0_1146_2">
<rect width="50" height="50" fill="white"/>
</clipPath>
</defs>
</svg>
