<svg width="50" height="50" viewBox="0 0 50 50" fill="none" xmlns="http://www.w3.org/2000/svg">
<g clip-path="url(#clip0_808_1264)">
<path d="M45.5 0H4.5C2.01472 0 0 2.01472 0 4.5V45.5C0 47.9853 2.01472 50 4.5 50H45.5C47.9853 50 50 47.9853 50 45.5V4.5C50 2.01472 47.9853 0 45.5 0Z" fill="#000E9C"/>
<path d="M29.15 20.47H35.89" stroke="#36E5FF" stroke-linejoin="round"/>
<path d="M25.32 31.04L35.89 20.47V27.21" stroke="#36E5FF" stroke-linejoin="round"/>
<path fill-rule="evenodd" clip-rule="evenodd" d="M33.25 31.44C33.58 31.78 33.74 32.24 33.7 32.67V37.18C33.73 37.64 33.55 38.08 33.23 38.41C32.91 38.73 32.46 38.9 32.02 38.88C26.05 38.88 20.33 36.52 16.11 32.3C11.89 28.08 9.52 22.36 9.53 16.41C9.5 15.95 9.68 15.49 10.01 15.17C10.34 14.84 10.8 14.68 11.23 14.71H15.74C16.21 14.68 16.67 14.86 16.99 15.2C17.32 15.54 17.48 16 17.44 16.43C17.46 17.92 17.67 19.39 18.06 20.83C18.36 21.42 18.21 22.14 17.72 22.54L15.06 25.18C16.9 28.59 19.7 31.4 23.11 33.24L25.82 30.54C26.28 30.2 26.87 30.09 27.46 30.22C28.93 30.71 30.46 30.96 32.01 30.96C32.47 30.94 32.93 31.11 33.25 31.45V31.44Z" stroke="white" stroke-linejoin="round"/>
<path d="M26.77 23.68C25.04 23.68 23.53 22.51 23.08 20.84C22.65 19.24 23.3 17.55 24.66 16.65C24.39 15.61 24.77 14.5 25.63 13.83C26.47 13.18 27.6 13.08 28.53 13.55C29.62 11.69 31.8 10.75 33.92 11.25C36.13 11.77 37.7 13.74 37.72 16.01V16.17C39.5 16.69 40.66 18.42 40.45 20.29C40.23 22.23 38.59 23.69 36.64 23.69H36.06" stroke="#36E5FF" stroke-linejoin="round"/>
</g>
<defs>
<clipPath id="clip0_808_1264">
<rect width="50" height="50" fill="white"/>
</clipPath>
</defs>
</svg>
