<svg width="50" height="50" viewBox="0 0 50 50" fill="none" xmlns="http://www.w3.org/2000/svg">
<g clip-path="url(#clip0_808_1567)">
<path d="M45.5 0H4.5C2.01472 0 0 2.01472 0 4.5V45.5C0 47.9853 2.01472 50 4.5 50H45.5C47.9853 50 50 47.9853 50 45.5V4.5C50 2.01472 47.9853 0 45.5 0Z" fill="#000E9C"/>
<path d="M39.54 9.51001H33.11C32.5909 9.51001 32.17 9.93086 32.17 10.45V13.92C32.17 14.4392 32.5909 14.86 33.11 14.86H39.54C40.0592 14.86 40.48 14.4392 40.48 13.92V10.45C40.48 9.93086 40.0592 9.51001 39.54 9.51001Z" stroke="white" stroke-miterlimit="10" stroke-linecap="round"/>
<path d="M28.21 9.51001H21.78C21.2609 9.51001 20.84 9.93086 20.84 10.45V13.92C20.84 14.4392 21.2609 14.86 21.78 14.86H28.21C28.7292 14.86 29.15 14.4392 29.15 13.92V10.45C29.15 9.93086 28.7292 9.51001 28.21 9.51001Z" stroke="white" stroke-miterlimit="10" stroke-linecap="round"/>
<path d="M16.88 9.51001H10.45C9.93086 9.51001 9.51001 9.93086 9.51001 10.45V13.92C9.51001 14.4392 9.93086 14.86 10.45 14.86H16.88C17.3992 14.86 17.82 14.4392 17.82 13.92V10.45C17.82 9.93086 17.3992 9.51001 16.88 9.51001Z" stroke="white" stroke-miterlimit="10" stroke-linecap="round"/>
<path d="M39.54 18.05H33.11C32.5909 18.05 32.17 18.4709 32.17 18.99V22.46C32.17 22.9792 32.5909 23.4 33.11 23.4H39.54C40.0592 23.4 40.48 22.9792 40.48 22.46V18.99C40.48 18.4709 40.0592 18.05 39.54 18.05Z" stroke="white" stroke-miterlimit="10" stroke-linecap="round"/>
<path d="M28.21 18.05H21.78C21.2609 18.05 20.84 18.4709 20.84 18.99V22.46C20.84 22.9792 21.2609 23.4 21.78 23.4H28.21C28.7292 23.4 29.15 22.9792 29.15 22.46V18.99C29.15 18.4709 28.7292 18.05 28.21 18.05Z" stroke="white" stroke-miterlimit="10" stroke-linecap="round"/>
<path d="M16.88 18.05H10.45C9.93086 18.05 9.51001 18.4709 9.51001 18.99V22.46C9.51001 22.9792 9.93086 23.4 10.45 23.4H16.88C17.3992 23.4 17.82 22.9792 17.82 22.46V18.99C17.82 18.4709 17.3992 18.05 16.88 18.05Z" stroke="white" stroke-miterlimit="10" stroke-linecap="round"/>
<path d="M39.54 26.59H33.11C32.5909 26.59 32.17 27.0108 32.17 27.53V31C32.17 31.5191 32.5909 31.94 33.11 31.94H39.54C40.0592 31.94 40.48 31.5191 40.48 31V27.53C40.48 27.0108 40.0592 26.59 39.54 26.59Z" stroke="white" stroke-miterlimit="10" stroke-linecap="round"/>
<path d="M28.21 26.59H21.78C21.2609 26.59 20.84 27.0108 20.84 27.53V31C20.84 31.5191 21.2609 31.94 21.78 31.94H28.21C28.7292 31.94 29.15 31.5191 29.15 31V27.53C29.15 27.0108 28.7292 26.59 28.21 26.59Z" stroke="white" stroke-miterlimit="10" stroke-linecap="round"/>
<path d="M28.21 35.13H21.78C21.2609 35.13 20.84 35.5509 20.84 36.07V39.54C20.84 40.0592 21.2609 40.48 21.78 40.48H28.21C28.7292 40.48 29.15 40.0592 29.15 39.54V36.07C29.15 35.5509 28.7292 35.13 28.21 35.13Z" stroke="#36E5FF" stroke-miterlimit="10" stroke-linecap="round"/>
<path d="M16.88 26.59H10.45C9.93086 26.59 9.51001 27.0108 9.51001 27.53V31C9.51001 31.5191 9.93086 31.94 10.45 31.94H16.88C17.3992 31.94 17.82 31.5191 17.82 31V27.53C17.82 27.0108 17.3992 26.59 16.88 26.59Z" stroke="white" stroke-miterlimit="10" stroke-linecap="round"/>
</g>
<defs>
<clipPath id="clip0_808_1567">
<rect width="50" height="50" fill="white"/>
</clipPath>
</defs>
</svg>
