<svg width="50" height="50" viewBox="0 0 50 50" fill="none" xmlns="http://www.w3.org/2000/svg">
<g clip-path="url(#clip0_808_1604)">
<path d="M45.5 0H4.5C2.01472 0 0 2.01472 0 4.5V45.5C0 47.9853 2.01472 50 4.5 50H45.5C47.9853 50 50 47.9853 50 45.5V4.5C50 2.01472 47.9853 0 45.5 0Z" fill="#000E9C"/>
<path fill-rule="evenodd" clip-rule="evenodd" d="M39.9 30.94C40.32 31.37 40.53 31.97 40.47 32.52V38.29C40.5 38.88 40.28 39.45 39.87 39.86C39.46 40.27 38.88 40.49 38.32 40.46C30.68 40.46 23.35 37.44 17.95 32.04C12.55 26.64 9.51999 19.31 9.52999 11.7C9.49999 11.11 9.71999 10.53 10.14 10.11C10.56 9.68999 11.15 9.47999 11.7 9.51999H17.47C18.07 9.48999 18.66 9.70999 19.07 10.15C19.49 10.58 19.7 11.18 19.64 11.72C19.66 13.62 19.93 15.51 20.44 17.35C20.82 18.11 20.63 19.03 20 19.54L16.59 22.92C18.95 27.29 22.53 30.88 26.9 33.24L30.37 29.78C30.96 29.35 31.71 29.2 32.47 29.37C34.35 30 36.32 30.31 38.3 30.31C38.89 30.28 39.47 30.51 39.89 30.94H39.9Z" stroke="white" stroke-linejoin="round"/>
</g>
<defs>
<clipPath id="clip0_808_1604">
<rect width="50" height="50" fill="white"/>
</clipPath>
</defs>
</svg>
