<svg width="50" height="50" viewBox="0 0 50 50" fill="none" xmlns="http://www.w3.org/2000/svg">
<g clip-path="url(#clip0_808_1779)">
<path d="M45.5 0H4.5C2.01472 0 0 2.01472 0 4.5V45.5C0 47.9853 2.01472 50 4.5 50H45.5C47.9853 50 50 47.9853 50 45.5V4.5C50 2.01472 47.9853 0 45.5 0Z" fill="#000E9C"/>
<path d="M37.89 27.92C37.96 27.66 38.03 27.4 38.09 27.13C38.31 26.12 38.43 25.06 38.43 23.98C38.43 15.99 31.95 9.51001 23.96 9.51001C15.97 9.51001 9.48999 15.99 9.48999 23.98C9.48999 30.88 14.32 36.65 20.78 38.1" stroke="white" stroke-linejoin="round"/>
<path d="M31.7 27.98C31.9 26.71 32.01 25.38 32.01 23.99C32.01 16 28.41 9.52 23.96 9.52C19.51 9.52 15.91 16 15.91 23.99C15.91 29.91 17.89 35 20.72 37.24" stroke="white" stroke-linejoin="round"/>
<path d="M23.96 9.51001V28.01" stroke="white" stroke-linejoin="round"/>
<path d="M38.43 23.99H9.48" stroke="white" stroke-linejoin="round"/>
<path d="M36.19 16.24H11.73" stroke="white" stroke-linejoin="round"/>
<path d="M20.77 31.74H11.73" stroke="white" stroke-linejoin="round"/>
<path d="M40.51 28.01H20.88V40.48H40.51V28.01Z" stroke="#36E5FF" stroke-miterlimit="10" stroke-linecap="round"/>
<path d="M24.06 32.01H25.46C26.26 32.01 26.88 32.23 27.33 32.66C27.78 33.09 28 33.74 28 34.6C28 35.03 27.94 35.41 27.83 35.74C27.72 36.07 27.55 36.35 27.33 36.57C27.11 36.79 26.85 36.96 26.55 37.07C26.25 37.18 25.9 37.24 25.51 37.24H24.06V32.01ZM25.4 36.49C25.93 36.49 26.34 36.34 26.63 36.03C26.92 35.72 27.06 35.25 27.06 34.6C27.06 33.95 26.92 33.49 26.63 33.2C26.34 32.91 25.93 32.76 25.41 32.76H25V36.49H25.41H25.4Z" fill="#36E5FF"/>
<path d="M29.06 32.01H30.01L31.64 34.95L32.18 36.06H32.21C32.19 35.79 32.16 35.5 32.13 35.18C32.1 34.86 32.09 34.57 32.09 34.27V32H32.98V37.23H32.03L30.4 34.29L29.86 33.18H29.83C29.85 33.46 29.88 33.75 29.91 34.05C29.94 34.35 29.95 34.65 29.95 34.95V37.24H29.06V32.01Z" fill="#36E5FF"/>
<path d="M34.49 35.94C34.68 36.12 34.89 36.26 35.13 36.37C35.37 36.48 35.61 36.53 35.85 36.53C36.15 36.53 36.38 36.47 36.53 36.35C36.68 36.23 36.76 36.06 36.76 35.86C36.76 35.75 36.74 35.66 36.7 35.59C36.66 35.52 36.6 35.45 36.53 35.39C36.46 35.33 36.37 35.28 36.27 35.23C36.17 35.18 36.06 35.13 35.95 35.09L35.23 34.78C35.1 34.73 34.98 34.66 34.85 34.58C34.72 34.5 34.61 34.4 34.51 34.29C34.41 34.18 34.33 34.05 34.27 33.9C34.21 33.75 34.18 33.58 34.18 33.39C34.18 33.18 34.22 32.99 34.31 32.81C34.4 32.63 34.52 32.48 34.67 32.34C34.82 32.21 35.01 32.1 35.23 32.03C35.45 31.96 35.68 31.92 35.94 31.92C36.24 31.92 36.54 31.98 36.82 32.1C37.1 32.22 37.35 32.38 37.55 32.58L37.08 33.17C36.91 33.03 36.73 32.92 36.55 32.84C36.37 32.76 36.17 32.72 35.94 32.72C35.69 32.72 35.49 32.77 35.34 32.88C35.19 32.99 35.12 33.14 35.12 33.33C35.12 33.43 35.14 33.52 35.19 33.59C35.24 33.66 35.3 33.73 35.37 33.78C35.45 33.84 35.54 33.89 35.64 33.93C35.74 33.98 35.85 34.02 35.95 34.06L36.66 34.36C36.81 34.42 36.96 34.5 37.08 34.58C37.21 34.67 37.32 34.76 37.41 34.88C37.5 35 37.58 35.12 37.63 35.27C37.68 35.42 37.71 35.59 37.71 35.78C37.71 35.99 37.67 36.19 37.58 36.38C37.49 36.57 37.37 36.73 37.21 36.87C37.05 37.01 36.85 37.12 36.62 37.21C36.39 37.29 36.13 37.33 35.83 37.33C35.48 37.33 35.14 37.26 34.81 37.13C34.48 37 34.19 36.81 33.94 36.56L34.48 35.93L34.49 35.94Z" fill="#36E5FF"/>
</g>
<defs>
<clipPath id="clip0_808_1779">
<rect width="50" height="50" fill="white"/>
</clipPath>
</defs>
</svg>
