<svg width="50" height="50" viewBox="0 0 50 50" fill="none" xmlns="http://www.w3.org/2000/svg">
<g clip-path="url(#clip0_808_1762)">
<path d="M45.5 0H4.5C2.01472 0 0 2.01472 0 4.5V45.5C0 47.9853 2.01472 50 4.5 50H45.5C47.9853 50 50 47.9853 50 45.5V4.5C50 2.01472 47.9853 0 45.5 0Z" fill="#000E9C"/>
<circle cx="12.88" cy="17.02" r="0.75" fill="white"/>
<circle cx="15.85" cy="17.02" r="0.75" fill="white"/>
<circle cx="18.82" cy="17.02" r="0.75" fill="white"/>
<path d="M27.97 36.37H10.85C10.1 36.37 9.5 35.76 9.5 35.02V14.99C9.5 14.24 10.11 13.64 10.85 13.64H39.16C39.91 13.64 40.51 14.25 40.51 14.99V35.02C40.51 35.77 39.9 36.37 39.16 36.37H36.56" stroke="white" stroke-linejoin="round"/>
<path d="M9.66 20.17H40.34" stroke="white" stroke-linejoin="round"/>
<path d="M14.94 25.93H16.24L16.67 27.97C16.71 28.19 16.74 28.4 16.77 28.62C16.8 28.83 16.83 29.05 16.87 29.28H16.91C16.95 29.06 16.99 28.83 17.03 28.62C17.07 28.4 17.11 28.19 17.17 27.98L17.66 25.94H18.79L19.29 27.98C19.34 28.2 19.39 28.41 19.43 28.63C19.47 28.84 19.52 29.06 19.56 29.29H19.6C19.64 29.07 19.68 28.85 19.7 28.63C19.73 28.42 19.76 28.2 19.8 27.98L20.22 25.94H21.43L20.37 30.34H18.84L18.44 28.58C18.39 28.37 18.35 28.17 18.32 27.96C18.28 27.75 18.25 27.53 18.2 27.3H18.16C18.12 27.54 18.08 27.76 18.05 27.96C18.02 28.17 17.98 28.37 17.94 28.58L17.55 30.34H16.06L14.96 25.94L14.94 25.93Z" fill="#36E5FF"/>
<path d="M21.84 25.93H23.14L23.57 27.97C23.61 28.19 23.64 28.4 23.67 28.62C23.7 28.83 23.73 29.05 23.77 29.28H23.81C23.85 29.06 23.89 28.83 23.93 28.62C23.97 28.4 24.01 28.19 24.07 27.98L24.56 25.94H25.69L26.19 27.98C26.24 28.2 26.29 28.41 26.33 28.63C26.37 28.84 26.42 29.06 26.46 29.29H26.5C26.54 29.07 26.58 28.85 26.6 28.63C26.63 28.42 26.66 28.2 26.7 27.98L27.12 25.94H28.33L27.27 30.34H25.74L25.34 28.58C25.29 28.37 25.25 28.17 25.22 27.96C25.18 27.75 25.15 27.53 25.1 27.3H25.06C25.02 27.54 24.98 27.76 24.95 27.96C24.92 28.17 24.88 28.37 24.84 28.58L24.45 30.34H22.96L21.86 25.94L21.84 25.93Z" fill="#36E5FF"/>
<path d="M28.74 25.93H30.04L30.47 27.97C30.51 28.19 30.54 28.4 30.57 28.62C30.6 28.83 30.63 29.05 30.67 29.28H30.71C30.75 29.06 30.79 28.83 30.83 28.62C30.87 28.4 30.91 28.19 30.97 27.98L31.46 25.94H32.59L33.09 27.98C33.14 28.2 33.19 28.41 33.23 28.63C33.27 28.84 33.32 29.06 33.36 29.29H33.4C33.44 29.07 33.48 28.85 33.5 28.63C33.53 28.42 33.56 28.2 33.6 27.98L34.02 25.94H35.23L34.17 30.34H32.64L32.24 28.58C32.19 28.37 32.15 28.17 32.12 27.96C32.08 27.75 32.05 27.53 32 27.3H31.96C31.92 27.54 31.88 27.76 31.85 27.96C31.82 28.17 31.78 28.37 31.74 28.58L31.35 30.34H29.86L28.76 25.94L28.74 25.93Z" fill="#36E5FF"/>
<path d="M36.96 36.57L26.94 31.59L29.22 42.16L31.37 39.37L33.65 42.29L35.63 40.77L33.39 37.88L36.96 36.57Z" stroke="white" stroke-linejoin="round"/>
</g>
<defs>
<clipPath id="clip0_808_1762">
<rect width="50" height="50" fill="white"/>
</clipPath>
</defs>
</svg>
