<svg width="50" height="50" viewBox="0 0 50 50" fill="none" xmlns="http://www.w3.org/2000/svg">
<g clip-path="url(#clip0_808_1724)">
<path d="M45.5 0H4.5C2.01472 0 0 2.01472 0 4.5V45.5C0 47.9853 2.01472 50 4.5 50H45.5C47.9853 50 50 47.9853 50 45.5V4.5C50 2.01472 47.9853 0 45.5 0Z" fill="#000E9C"/>
<path d="M31.39 29.61H27.97V33.03" stroke="#36E5FF" stroke-linejoin="round"/>
<path d="M24.54 29.61H27.97V26.19" stroke="#36E5FF" stroke-linejoin="round"/>
<path d="M12.1827 22.82C12.0722 21.2484 12.7427 19.6894 14.03 18.69C15.51 17.54 17.51 17.36 19.16 18.2C21.08 14.92 24.94 13.24 28.68 14.13C32.59 15.05 35.36 18.52 35.4 22.54V22.82C38.54 23.74 40.6 26.8 40.22 30.1L40.21 30.09C39.82 33.51 36.92 36.1 33.48 36.1H22.2034" stroke="white" stroke-linejoin="round"/>
<path d="M22.28 22.73H8.90002V36.11H22.28V22.73Z" stroke="#36E5FF" stroke-linejoin="round"/>
<path d="M11.9401 26.23H13.0701V32.59H11.9401V26.23Z" fill="#36E5FF"/>
<path d="M14.6801 26.23H16.8201C17.1701 26.23 17.4901 26.26 17.7901 26.33C18.0801 26.39 18.3401 26.51 18.5501 26.66C18.7601 26.82 18.9301 27.02 19.0601 27.27C19.1801 27.52 19.2401 27.83 19.2401 28.2C19.2401 28.55 19.1801 28.86 19.0601 29.11C18.9401 29.37 18.7701 29.59 18.5501 29.76C18.3301 29.93 18.0801 30.06 17.7801 30.14C17.4801 30.22 17.1701 30.26 16.8201 30.26H15.8101V32.6H14.6801V26.24V26.23ZM16.7301 29.36C17.6601 29.36 18.1301 28.97 18.1301 28.2C18.1301 27.8 18.0101 27.52 17.7801 27.37C17.5501 27.22 17.2001 27.14 16.7301 27.14H15.8101V29.36H16.7301Z" fill="#36E5FF"/>
</g>
<defs>
<clipPath id="clip0_808_1724">
<rect width="50" height="50" fill="white"/>
</clipPath>
</defs>
</svg>
