<svg width="50" height="50" viewBox="0 0 50 50" fill="none" xmlns="http://www.w3.org/2000/svg">
<g clip-path="url(#clip0_808_2199)">
<path d="M45.5 0H4.5C2.01472 0 0 2.01472 0 4.5V45.5C0 47.9853 2.01472 50 4.5 50H45.5C47.9853 50 50 47.9853 50 45.5V4.5C50 2.01472 47.9853 0 45.5 0Z" fill="#000E9C"/>
<path d="M25.06 9.60999H24.95C23.29 12.86 19.99 15.13 16.14 15.66L15.44 15.74H14.51C14.2034 15.74 13.8867 15.74 13.56 15.74C12.96 15.7 12.37 15.61 11.79 15.48C11.72 15.93 11.68 16.38 11.66 16.82C11.66 26.24 16.65 35.05 25 40.4C33.35 35.05 38.34 26.24 38.34 16.83C38.34 16.38 38.31 15.93 38.25 15.49C37.67 15.62 37.07 15.71 36.48 15.76H36.44H34.91C34.8034 15.76 34.68 15.76 34.54 15.76L33.89 15.69C30.04 15.18 26.73 12.9 25.06 9.62999V9.60999Z" stroke="white" stroke-linejoin="round"/>
<path d="M24.99 16.62C22.79 18.68 19.83 19.88 16.72 19.98C16.74 25.82 19.83 31.28 24.99 34.63C30.16 31.29 33.25 25.83 33.28 19.98C30.16 19.88 27.2 18.67 24.99 16.62Z" stroke="#36E5FF" stroke-linejoin="round"/>
</g>
<defs>
<clipPath id="clip0_808_2199">
<rect width="50" height="50" fill="white"/>
</clipPath>
</defs>
</svg>
