<svg width="50" height="50" viewBox="0 0 50 50" fill="none" xmlns="http://www.w3.org/2000/svg">
<g clip-path="url(#clip0_808_2401)">
<path d="M45.5 0H4.5C2.01472 0 0 2.01472 0 4.5V45.5C0 47.9853 2.01472 50 4.5 50H45.5C47.9853 50 50 47.9853 50 45.5V4.5C50 2.01472 47.9853 0 45.5 0Z" fill="#000E9C"/>
<path d="M12.4127 22.82C12.3022 21.2484 12.9726 19.6894 14.26 18.69C15.74 17.54 17.74 17.36 19.39 18.2C21.31 14.92 25.17 13.24 28.91 14.13C32.82 15.05 35.59 18.52 35.63 22.54V22.82C38.77 23.74 40.83 26.8 40.45 30.1L40.44 30.09C40.05 33.51 37.15 36.1 33.71 36.1H22.586" stroke="white" stroke-linejoin="round"/>
<path d="M22.51 22.73H9.13V36.11H22.51V22.73Z" stroke="#36E5FF" stroke-linejoin="round"/>
<path d="M12.17 26.23H13.3V32.59H12.17V26.23Z" fill="#36E5FF"/>
<path d="M14.91 26.23H17.05C17.4 26.23 17.72 26.26 18.02 26.33C18.31 26.39 18.57 26.51 18.78 26.66C18.99 26.82 19.16 27.02 19.29 27.27C19.41 27.52 19.47 27.83 19.47 28.2C19.47 28.55 19.41 28.86 19.29 29.11C19.17 29.37 19 29.59 18.78 29.76C18.56 29.93 18.31 30.06 18.01 30.14C17.71 30.22 17.4 30.26 17.05 30.26H16.04V32.6H14.91V26.24V26.23ZM16.97 29.36C17.9 29.36 18.37 28.97 18.37 28.2C18.37 27.8 18.25 27.52 18.02 27.37C17.79 27.22 17.44 27.14 16.97 27.14H16.05V29.36H16.97Z" fill="#36E5FF"/>
<path d="M22.51 29.42H29.16" stroke="#36E5FF" stroke-linejoin="round"/>
<path d="M26.2 32.38L29.16 29.42L26.2 26.46" stroke="#36E5FF" stroke-linejoin="round"/>
</g>
<defs>
<clipPath id="clip0_808_2401">
<rect width="50" height="50" fill="white"/>
</clipPath>
</defs>
</svg>
