<svg width="50" height="50" viewBox="0 0 50 50" fill="none" xmlns="http://www.w3.org/2000/svg">
<g clip-path="url(#clip0_808_1924)">
<path d="M45.5 0H4.5C2.01472 0 0 2.01472 0 4.5V45.5C0 47.9853 2.01472 50 4.5 50H45.5C47.9853 50 50 47.9853 50 45.5V4.5C50 2.01472 47.9853 0 45.5 0Z" fill="#000E9C"/>
<path d="M13.36 14.79C16.2 11.55 20.36 9.51001 25 9.51001C30.5 9.51001 35.33 12.38 38.08 16.71C39.61 19.1 40.49 21.95 40.49 25C40.49 27.19 40.04 29.28 39.21 31.17" stroke="white" stroke-linejoin="round"/>
<path d="M36.64 35.21C33.8 38.45 29.64 40.49 25 40.49C19.5 40.49 14.67 37.62 11.92 33.29C10.39 30.9 9.51001 28.05 9.51001 25C9.51001 22.81 9.96001 20.72 10.79 18.83" stroke="white" stroke-linejoin="round"/>
<path d="M18.65 35.46C20.23 38.55 22.49 40.49 25 40.49C28.06 40.49 30.74 37.62 32.27 33.29C32.89 31.54 33.32 29.54 33.51 27.4" stroke="white" stroke-linejoin="round"/>
<path d="M17.05 30.96C16.63 29.13 16.39 27.11 16.39 25C16.39 21.95 16.88 19.1 17.73 16.71C19.26 12.38 21.94 9.51001 25 9.51001C28.06 9.51001 30.74 12.38 32.27 16.71C32.89 18.46 33.32 20.46 33.51 22.6" stroke="white" stroke-linejoin="round"/>
<path d="M25 40.49V33.29V25V19.11" stroke="white" stroke-linejoin="round"/>
<path d="M25 14.31V9.51001" stroke="white" stroke-linejoin="round"/>
<path d="M31.21 25H25H16.39H9.51001" stroke="white" stroke-linejoin="round"/>
<path d="M40.49 25H36.01" stroke="white" stroke-linejoin="round"/>
<path d="M38.08 16.71H32.27H27.4" stroke="white" stroke-linejoin="round"/>
<path d="M14.3201 16.71H17.7301H22.6001" stroke="white" stroke-linejoin="round"/>
<path d="M15.22 33.29H11.92" stroke="white" stroke-linejoin="round"/>
<path d="M35.68 33.29H32.27H25H20.03" stroke="white" stroke-linejoin="round"/>
<path d="M11.92 19.11C13.2455 19.11 14.32 18.0355 14.32 16.71C14.32 15.3845 13.2455 14.31 11.92 14.31C10.5945 14.31 9.52002 15.3845 9.52002 16.71C9.52002 18.0355 10.5945 19.11 11.92 19.11Z" stroke="#36E5FF" stroke-linejoin="round"/>
<path d="M33.61 27.4C34.9354 27.4 36.01 26.3255 36.01 25C36.01 23.6745 34.9354 22.6 33.61 22.6C32.2845 22.6 31.21 23.6745 31.21 25C31.21 26.3255 32.2845 27.4 33.61 27.4Z" stroke="#36E5FF" stroke-linejoin="round"/>
<path d="M25 19.11C26.3255 19.11 27.4 18.0355 27.4 16.71C27.4 15.3845 26.3255 14.31 25 14.31C23.6745 14.31 22.6 15.3845 22.6 16.71C22.6 18.0355 23.6745 19.11 25 19.11Z" stroke="#36E5FF" stroke-linejoin="round"/>
<path d="M17.62 35.69C18.9455 35.69 20.02 34.6155 20.02 33.29C20.02 31.9645 18.9455 30.89 17.62 30.89C16.2945 30.89 15.22 31.9645 15.22 33.29C15.22 34.6155 16.2945 35.69 17.62 35.69Z" stroke="#36E5FF" stroke-linejoin="round"/>
<path d="M38.0799 35.69C39.4054 35.69 40.4799 34.6155 40.4799 33.29C40.4799 31.9645 39.4054 30.89 38.0799 30.89C36.7544 30.89 35.6799 31.9645 35.6799 33.29C35.6799 34.6155 36.7544 35.69 38.0799 35.69Z" stroke="#36E5FF" stroke-linejoin="round"/>
</g>
<defs>
<clipPath id="clip0_808_1924">
<rect width="50" height="50" fill="white"/>
</clipPath>
</defs>
</svg>
