<svg width="50" height="50" viewBox="0 0 50 50" fill="none" xmlns="http://www.w3.org/2000/svg">
<g clip-path="url(#clip0_808_2362)">
<path d="M45.5 0H4.5C2.01472 0 0 2.01472 0 4.5V45.5C0 47.9853 2.01472 50 4.5 50H45.5C47.9853 50 50 47.9853 50 45.5V4.5C50 2.01472 47.9853 0 45.5 0Z" fill="#000E9C"/>
<path d="M25 31.73C31.1304 31.73 36.1 26.7604 36.1 20.63C36.1 14.4996 31.1304 9.53 25 9.53C18.8697 9.53 13.9 14.4996 13.9 20.63C13.9 26.7604 18.8697 31.73 25 31.73Z" stroke="white" stroke-linejoin="round"/>
<path d="M18.6901 29.76V33.36C18.6901 35.1 21.5201 36.52 25.0001 36.52C28.4801 36.52 31.3101 35.11 31.3101 33.36V29.75" stroke="white" stroke-linejoin="round"/>
<path d="M23.02 40.47V36.52" stroke="white" stroke-linejoin="round"/>
<path d="M26.98 36.52V40.47" stroke="white" stroke-linejoin="round"/>
<path d="M21.48 16.9H22.87V24.75H21.48V16.9Z" fill="#36E5FF"/>
<path d="M24.86 16.9H27.5C27.93 16.9 28.33 16.94 28.69 17.02C29.05 17.1 29.37 17.24 29.63 17.43C29.89 17.62 30.1 17.87 30.25 18.18C30.4 18.49 30.48 18.87 30.48 19.33C30.48 19.76 30.4 20.14 30.25 20.46C30.1 20.78 29.89 21.05 29.62 21.26C29.35 21.47 29.04 21.63 28.67 21.73C28.31 21.83 27.91 21.88 27.49 21.88H26.24V24.76H24.85V16.91L24.86 16.9ZM27.39 20.75C28.54 20.75 29.12 20.27 29.12 19.32C29.12 18.82 28.98 18.48 28.69 18.29C28.4 18.1 27.97 18.01 27.39 18.01H26.25V20.75H27.39Z" fill="#36E5FF"/>
</g>
<defs>
<clipPath id="clip0_808_2362">
<rect width="50" height="50" fill="white"/>
</clipPath>
</defs>
</svg>
