<svg width="50" height="50" viewBox="0 0 50 50" fill="none" xmlns="http://www.w3.org/2000/svg">
<g clip-path="url(#clip0_808_2038)">
<path d="M45.5 0H4.5C2.01472 0 0 2.01472 0 4.5V45.5C0 47.9853 2.01472 50 4.5 50H45.5C47.9853 50 50 47.9853 50 45.5V4.5C50 2.01472 47.9853 0 45.5 0Z" fill="#000E9C"/>
<path fill-rule="evenodd" clip-rule="evenodd" d="M40.4401 30.09C40.0501 33.51 37.1501 36.1 33.7101 36.1H16.2701C13.2101 36.09 10.5401 34.03 9.75007 31.08C8.99007 28.25 10.1301 25.27 12.5501 23.67C12.0801 21.83 12.7401 19.87 14.2601 18.69C15.7401 17.54 17.7401 17.36 19.3901 18.2C21.3101 14.92 25.1701 13.24 28.9101 14.13C32.8201 15.05 35.5901 18.52 35.6301 22.54V22.82C38.7701 23.74 40.8301 26.8 40.4501 30.1L40.4401 30.09Z" stroke="white" stroke-linejoin="round"/>
<path d="M31.0701 24.66L33.5701 27.16L31.0701 29.66" stroke="#36E5FF" stroke-linejoin="round"/>
<path d="M23.5701 27.16H16.5701" stroke="#36E5FF" stroke-linejoin="round"/>
<path d="M33.5701 27.16H27.5801" stroke="#36E5FF" stroke-linejoin="round"/>
<path d="M26.8801 33.06H23.5701V21.25H26.8801C27.3401 21.25 27.7101 21.62 27.7101 22.08V32.23C27.7101 32.69 27.3401 33.06 26.8801 33.06Z" stroke="#36E5FF" stroke-linejoin="round"/>
<path d="M20.4301 24.71V22.08C20.4301 21.62 20.8001 21.25 21.2601 21.25H23.5701V33.06H21.2601C20.8001 33.06 20.4301 32.69 20.4301 32.23V29.6" stroke="#36E5FF" stroke-linejoin="round"/>
</g>
<defs>
<clipPath id="clip0_808_2038">
<rect width="50" height="50" fill="white"/>
</clipPath>
</defs>
</svg>
