<svg width="50" height="50" viewBox="0 0 50 50" fill="none" xmlns="http://www.w3.org/2000/svg">
<g clip-path="url(#clip0_808_2086)">
<path d="M45.5 0H4.5C2.01472 0 0 2.01472 0 4.5V45.5C0 47.9853 2.01472 50 4.5 50H45.5C47.9853 50 50 47.9853 50 45.5V4.5C50 2.01472 47.9853 0 45.5 0Z" fill="#000E9C"/>
<path fill-rule="evenodd" clip-rule="evenodd" d="M40.44 30.09C40.05 33.51 37.15 36.1 33.71 36.1H16.27C13.21 36.09 10.54 34.03 9.75 31.08C8.99 28.25 10.13 25.27 12.55 23.67C12.08 21.83 12.74 19.87 14.26 18.69C15.74 17.54 17.74 17.36 19.39 18.2C21.31 14.92 25.17 13.24 28.91 14.13C32.82 15.05 35.59 18.52 35.63 22.54V22.82C38.77 23.74 40.83 26.8 40.45 30.1L40.44 30.09Z" stroke="white" stroke-linejoin="round"/>
<path d="M28.0499 22.3L21.95 31.51" stroke="#36E5FF" stroke-linejoin="round"/>
<path d="M28.0499 26.9H21.95" stroke="#36E5FF" stroke-linejoin="round"/>
<path d="M28.0499 31.51L21.95 22.3" stroke="#36E5FF" stroke-linejoin="round"/>
<path d="M20.4 28.45C21.256 28.45 21.95 27.756 21.95 26.9C21.95 26.044 21.256 25.35 20.4 25.35C19.5439 25.35 18.85 26.044 18.85 26.9C18.85 27.756 19.5439 28.45 20.4 28.45Z" stroke="#36E5FF" stroke-linejoin="round"/>
<path d="M20.4 33.06C21.256 33.06 21.95 32.3661 21.95 31.51C21.95 30.654 21.256 29.96 20.4 29.96C19.5439 29.96 18.85 30.654 18.85 31.51C18.85 32.3661 19.5439 33.06 20.4 33.06Z" stroke="#36E5FF" stroke-linejoin="round"/>
<path d="M20.4 23.85C21.256 23.85 21.95 23.156 21.95 22.3C21.95 21.4439 21.256 20.75 20.4 20.75C19.5439 20.75 18.85 21.4439 18.85 22.3C18.85 23.156 19.5439 23.85 20.4 23.85Z" stroke="#36E5FF" stroke-linejoin="round"/>
<path d="M29.6 28.45C30.456 28.45 31.15 27.756 31.15 26.9C31.15 26.044 30.456 25.35 29.6 25.35C28.7439 25.35 28.05 26.044 28.05 26.9C28.05 27.756 28.7439 28.45 29.6 28.45Z" stroke="#36E5FF" stroke-linejoin="round"/>
<path d="M29.6 23.85C30.456 23.85 31.15 23.156 31.15 22.3C31.15 21.4439 30.456 20.75 29.6 20.75C28.7439 20.75 28.05 21.4439 28.05 22.3C28.05 23.156 28.7439 23.85 29.6 23.85Z" stroke="#36E5FF" stroke-linejoin="round"/>
<path d="M29.6 33.06C30.456 33.06 31.15 32.3661 31.15 31.51C31.15 30.654 30.456 29.96 29.6 29.96C28.7439 29.96 28.05 30.654 28.05 31.51C28.05 32.3661 28.7439 33.06 29.6 33.06Z" stroke="#36E5FF" stroke-linejoin="round"/>
</g>
<defs>
<clipPath id="clip0_808_2086">
<rect width="50" height="50" fill="white"/>
</clipPath>
</defs>
</svg>
