<svg width="50" height="50" viewBox="0 0 50 50" fill="none" xmlns="http://www.w3.org/2000/svg">
<g clip-path="url(#clip0_808_2376)">
<path d="M45.5 0H4.5C2.01472 0 0 2.01472 0 4.5V45.5C0 47.9853 2.01472 50 4.5 50H45.5C47.9853 50 50 47.9853 50 45.5V4.5C50 2.01472 47.9853 0 45.5 0Z" fill="#000E9C"/>
<path d="M31 22.5L33.5 25L31 27.5" stroke="#36E5FF" stroke-linejoin="round"/>
<path d="M23.5 25H16.5" stroke="#36E5FF" stroke-linejoin="round"/>
<path d="M33.5 25H27.5" stroke="#36E5FF" stroke-linejoin="round"/>
<path d="M26.8 30.9H23.49V19.09H26.8C27.26 19.09 27.63 19.46 27.63 19.92V30.07C27.63 30.53 27.26 30.9 26.8 30.9Z" stroke="#36E5FF" stroke-linejoin="round"/>
<path d="M20.36 22.55V19.92C20.36 19.46 20.73 19.09 21.19 19.09H23.5V30.9H21.19C20.73 30.9 20.36 30.53 20.36 30.07V27.44" stroke="#36E5FF" stroke-linejoin="round"/>
<path d="M25.06 9.60999H24.95C23.29 12.86 19.99 15.13 16.14 15.66L15.44 15.74H14.51C14.2034 15.74 13.8867 15.74 13.56 15.74C12.96 15.7 12.37 15.61 11.79 15.48C11.72 15.93 11.68 16.38 11.66 16.82C11.66 26.24 16.65 35.05 25 40.4C33.35 35.05 38.34 26.24 38.34 16.83C38.34 16.38 38.31 15.93 38.25 15.49C37.67 15.62 37.07 15.71 36.48 15.76H36.44H34.91C34.8034 15.76 34.68 15.76 34.54 15.76L33.89 15.69C30.04 15.18 26.73 12.9 25.06 9.63V9.60999Z" stroke="white" stroke-linejoin="round"/>
</g>
<defs>
<clipPath id="clip0_808_2376">
<rect width="50" height="50" fill="white"/>
</clipPath>
</defs>
</svg>
