<svg width="50" height="50" viewBox="0 0 50 50" xmlns="http://www.w3.org/2000/svg">
  <defs>
    <linearGradient id="hexGradient" x1="0%" y1="0%" x2="0%" y2="100%">
      <stop offset="0%" style="stop-color:#87CEEB;stop-opacity:1" />
      <stop offset="100%" style="stop-color:#2E5C8A;stop-opacity:1" />
    </linearGradient>
  </defs>
  
  <!-- Hexagonal Arrow Structure -->
  <g transform="translate(5, 5)">
    <!-- Hexagon outline -->
    <path d="M 20 0 L 30 0 L 35 8.66 L 30 17.32 L 20 17.32 L 15 8.66 Z" 
          fill="none" stroke="url(#hexGradient)" stroke-width="1.5" opacity="0.9"/>
    
    <!-- Arrow indicators -->
    <path d="M 25 2 L 29 2 L 27 6 L 25 2" fill="#87CEEB"/>
    <path d="M 33 8.66 L 33 12.66 L 29 10.66 L 33 8.66" fill="#2E5C8A"/>
    
    <!-- Inner Network of Spheres -->
    <circle cx="20" cy="8" r="2.5" fill="#FF6B35"/>
    <circle cx="30" cy="8" r="2.5" fill="#4ECDC4"/>
    <circle cx="25" cy="13" r="2.5" fill="#9B59B6"/>
    <circle cx="25" cy="4" r="2.5" fill="#FFFFFF"/>
    
    <!-- Connecting lines -->
    <line x1="20" y1="8" x2="25" y2="4" stroke="#FFFFFF" stroke-width="0.8" opacity="0.9"/>
    <line x1="25" y1="4" x2="30" y2="8" stroke="#FFFFFF" stroke-width="0.8" opacity="0.9"/>
    <line x1="20" y1="8" x2="25" y2="13" stroke="#FFFFFF" stroke-width="0.8" opacity="0.9"/>
    <line x1="30" y1="8" x2="25" y2="13" stroke="#FFFFFF" stroke-width="0.8" opacity="0.9"/>
  </g>
</svg>
