<svg width="50" height="50" viewBox="0 0 50 50" fill="none" xmlns="http://www.w3.org/2000/svg">
<g clip-path="url(#clip0_808_2281)">
<path d="M45.5 0H4.5C2.01472 0 0 2.01472 0 4.5V45.5C0 47.9853 2.01472 50 4.5 50H45.5C47.9853 50 50 47.9853 50 45.5V4.5C50 2.01472 47.9853 0 45.5 0Z" fill="#000E9C"/>
<path d="M11.84 14.6C11.84 17.47 17.6 19.8 24.71 19.8C31.82 19.8 37.58 17.47 37.58 14.6" stroke="white" stroke-linejoin="round"/>
<path d="M37.57 14.6C37.57 11.73 31.81 9.39999 24.7 9.39999C17.59 9.39999 11.83 11.73 11.83 14.6" stroke="white" stroke-linejoin="round"/>
<path d="M11.84 28.31C11.84 31.18 17.6 33.51 24.71 33.51C31.82 33.51 37.58 31.18 37.58 28.31" stroke="white" stroke-linejoin="round"/>
<path d="M11.84 21.45C11.84 24.32 17.6 26.65 24.71 26.65C31.82 26.65 37.58 24.32 37.58 21.45" stroke="white" stroke-linejoin="round"/>
<path d="M37.5699 33.97V14.6" stroke="white" stroke-linejoin="round"/>
<path d="M11.84 14.6V35.18C11.84 37.93 17.11 40.17 23.8 40.36" stroke="white" stroke-linejoin="round"/>
<path d="M25.4199 35.47H26.4099L27.3199 37.95L27.6499 38.91H27.6799L27.9999 37.95L28.8899 35.47H29.8799V40.51H29.0399V38.21C29.0399 38.09 29.0399 37.96 29.0499 37.83C29.0599 37.7 29.0699 37.55 29.0799 37.41C29.0799 37.27 29.0999 37.13 29.1199 36.99C29.1399 36.85 29.1499 36.73 29.1599 36.61H29.1299L28.7199 37.76L27.8499 40.05H27.4299L26.5599 37.76L26.1599 36.61H26.1299C26.1299 36.73 26.1499 36.86 26.1599 36.99C26.1699 37.13 26.1899 37.26 26.1999 37.41C26.2099 37.55 26.2199 37.69 26.2299 37.83C26.2399 37.97 26.2399 38.1 26.2399 38.21V40.51H25.4199V35.47Z" fill="#36E5FF"/>
<path d="M31.13 39.33C31.28 39.48 31.45 39.61 31.64 39.71C31.83 39.82 32.05 39.87 32.3 39.87C32.57 39.87 32.78 39.8 32.95 39.67C33.12 39.54 33.2 39.36 33.2 39.13C33.2 39 33.18 38.89 33.13 38.78C33.08 38.67 33.01 38.59 32.9 38.52C32.79 38.45 32.64 38.39 32.46 38.35C32.28 38.31 32.04 38.29 31.77 38.29V37.64C32.01 37.64 32.21 37.62 32.37 37.58C32.53 37.54 32.66 37.49 32.76 37.42C32.86 37.35 32.93 37.27 32.97 37.17C33.01 37.07 33.04 36.97 33.04 36.85C33.04 36.64 32.98 36.48 32.85 36.37C32.72 36.25 32.55 36.2 32.32 36.2C32.12 36.2 31.95 36.24 31.79 36.33C31.63 36.41 31.48 36.53 31.33 36.66L30.88 36.11C31.09 35.93 31.31 35.78 31.55 35.66C31.79 35.55 32.05 35.49 32.35 35.49C32.59 35.49 32.8 35.52 33 35.57C33.2 35.63 33.36 35.71 33.5 35.82C33.64 35.93 33.75 36.07 33.82 36.23C33.9 36.39 33.94 36.57 33.94 36.78C33.94 37.06 33.86 37.29 33.71 37.47C33.56 37.65 33.35 37.8 33.08 37.9V37.93C33.37 38.01 33.62 38.15 33.81 38.35C34 38.55 34.1 38.82 34.1 39.14C34.1 39.37 34.06 39.57 33.97 39.74C33.88 39.91 33.76 40.06 33.6 40.18C33.44 40.3 33.26 40.39 33.05 40.46C32.84 40.53 32.62 40.56 32.38 40.56C31.98 40.56 31.65 40.49 31.38 40.36C31.11 40.23 30.89 40.06 30.72 39.87L31.14 39.3L31.13 39.33Z" fill="#36E5FF"/>
<path d="M36.11 38.29H34.73V37.64H36.11V36.18H36.78V37.64H38.16V38.29H36.78V39.75H36.11V38.29Z" fill="#36E5FF"/>
</g>
<defs>
<clipPath id="clip0_808_2281">
<rect width="50" height="50" fill="white"/>
</clipPath>
</defs>
</svg>
