<svg width="50" height="50" viewBox="0 0 50 50" fill="none" xmlns="http://www.w3.org/2000/svg">
<g clip-path="url(#clip0_808_2323)">
<path d="M45.5 0H4.5C2.01472 0 0 2.01472 0 4.5V45.5C0 47.9853 2.01472 50 4.5 50H45.5C47.9853 50 50 47.9853 50 45.5V4.5C50 2.01472 47.9853 0 45.5 0Z" fill="#000E9C"/>
<path d="M11.87 14.6C11.87 17.47 17.63 19.8 24.74 19.8C31.85 19.8 37.61 17.47 37.61 14.6" stroke="white" stroke-linejoin="round"/>
<path d="M37.61 14.6C37.61 11.73 31.85 9.4 24.74 9.4C17.63 9.4 11.87 11.73 11.87 14.6" stroke="white" stroke-linejoin="round"/>
<path d="M11.87 28.31C11.87 31.18 17.63 33.51 24.74 33.51C31.85 33.51 37.61 31.18 37.61 28.31" stroke="white" stroke-linejoin="round"/>
<path d="M11.87 21.45C11.87 24.32 17.63 26.65 24.74 26.65C31.85 26.65 37.61 24.32 37.61 21.45" stroke="white" stroke-linejoin="round"/>
<path d="M37.61 33.97V14.6" stroke="white" stroke-linejoin="round"/>
<path d="M11.87 35.17C11.87 38.04 17.63 40.37 24.74 40.37C25.39 40.37 26.03 40.35 26.66 40.31" stroke="white" stroke-linejoin="round"/>
<path d="M11.87 14.6V35.17" stroke="white" stroke-linejoin="round"/>
<path d="M29.1 35.47H30.09L31 37.95L31.33 38.9H31.36L31.68 37.95L32.57 35.47H33.56V40.51H32.72V38.21C32.72 38.09 32.72 37.96 32.73 37.82C32.74 37.68 32.75 37.54 32.76 37.4C32.77 37.26 32.78 37.12 32.8 36.98C32.82 36.84 32.83 36.72 32.84 36.6H32.81L32.4 37.75L31.53 40.04H31.11L30.24 37.75L29.84 36.6H29.81C29.82 36.72 29.83 36.85 29.84 36.98C29.85 37.12 29.87 37.25 29.88 37.4C29.89 37.54 29.9 37.68 29.91 37.82C29.91 37.96 29.92 38.09 29.92 38.21V40.51H29.1V35.47Z" fill="#36E5FF"/>
<path d="M35.6799 38.63L34.1699 35.47H35.1199L35.6699 36.76C35.7399 36.95 35.8099 37.13 35.8899 37.31C35.9599 37.49 36.0399 37.67 36.1199 37.87H36.1499C36.2299 37.67 36.3099 37.49 36.3899 37.31C36.4699 37.13 36.5399 36.95 36.6099 36.76L37.1599 35.47H38.0899L36.5699 38.63V40.5H35.6799V38.63Z" fill="#36E5FF"/>
</g>
<defs>
<clipPath id="clip0_808_2323">
<rect width="50" height="50" fill="white"/>
</clipPath>
</defs>
</svg>
