<svg width="50" height="50" viewBox="0 0 50 50" fill="none" xmlns="http://www.w3.org/2000/svg">
<g clip-path="url(#clip0_808_2148)">
<path d="M45.5 7.62939e-06H4.5C2.01472 7.62939e-06 0 2.01473 0 4.50001V45.5C0 47.9853 2.01472 50 4.5 50H45.5C47.9853 50 50 47.9853 50 45.5V4.50001C50 2.01473 47.9853 7.62939e-06 45.5 7.62939e-06Z" fill="#000E9C"/>
<path d="M11.79 14.59C11.79 17.46 17.55 19.79 24.66 19.79C31.77 19.79 37.53 17.46 37.53 14.59" stroke="white" stroke-linejoin="round"/>
<path d="M37.53 14.59C37.53 11.72 31.77 9.39001 24.66 9.39001C17.55 9.39001 11.79 11.72 11.79 14.59" stroke="white" stroke-linejoin="round"/>
<path d="M11.79 28.31C11.79 31.18 17.55 33.51 24.66 33.51C31.77 33.51 37.53 31.18 37.53 28.31" stroke="white" stroke-linejoin="round"/>
<path d="M11.79 21.45C11.79 24.32 17.55 26.65 24.66 26.65C31.77 26.65 37.53 24.32 37.53 21.45" stroke="white" stroke-linejoin="round"/>
<path d="M37.53 33.97V14.59" stroke="white" stroke-linejoin="round"/>
<path d="M11.79 14.59V35.17C11.79 38.04 17.55 40.37 24.66 40.37C25.31 40.37 25.95 40.35 26.58 40.31" stroke="white" stroke-linejoin="round"/>
<path d="M29.92 35.47H31.61C31.89 35.47 32.1401 35.5 32.3801 35.55C32.6101 35.6 32.82 35.69 32.98 35.81C33.14 35.93 33.2801 36.09 33.3801 36.29C33.4801 36.49 33.53 36.73 33.53 37.03C33.53 37.31 33.4801 37.55 33.3801 37.75C33.2801 37.95 33.15 38.13 32.98 38.26C32.81 38.4 32.61 38.5 32.37 38.56C32.14 38.62 31.88 38.66 31.61 38.66H30.81V40.51H29.92V35.47ZM31.55 37.94C32.29 37.94 32.66 37.63 32.66 37.02C32.66 36.7 32.5701 36.48 32.3801 36.36C32.2001 36.24 31.92 36.18 31.55 36.18H30.82V37.94H31.55Z" fill="#36E5FF"/>
<path d="M34.2201 38C34.2201 37.59 34.2801 37.22 34.4001 36.9C34.5201 36.58 34.6901 36.3 34.9101 36.07C35.1301 35.84 35.3801 35.67 35.6701 35.55C35.9601 35.43 36.2801 35.37 36.6201 35.37C36.7901 35.37 36.9601 35.39 37.1001 35.42C37.2401 35.45 37.3901 35.5 37.5101 35.56C37.6301 35.62 37.7501 35.69 37.8501 35.76C37.9501 35.83 38.0401 35.92 38.1201 36L37.6301 36.55C37.5001 36.43 37.3601 36.33 37.2101 36.25C37.0601 36.17 36.8601 36.13 36.6301 36.13C36.4001 36.13 36.2001 36.17 36.0201 36.26C35.8401 36.35 35.6801 36.47 35.5501 36.62C35.4201 36.78 35.3201 36.97 35.2501 37.19C35.1801 37.41 35.1401 37.67 35.1401 37.95C35.1401 38.52 35.2701 38.98 35.5301 39.3C35.7901 39.63 36.1701 39.79 36.6801 39.79C36.8201 39.79 36.9601 39.77 37.0901 39.73C37.2201 39.69 37.3201 39.64 37.4101 39.56V38.47H36.4501V37.74H38.2101V39.96C38.0401 40.13 37.8101 40.27 37.5201 40.39C37.2301 40.51 36.9201 40.56 36.5701 40.56C36.2201 40.56 35.9301 40.5 35.6401 40.39C35.3501 40.28 35.1001 40.11 34.8901 39.89C34.6801 39.67 34.5101 39.4 34.4001 39.07C34.2801 38.75 34.2201 38.38 34.2201 37.96V38Z" fill="#36E5FF"/>
</g>
<defs>
<clipPath id="clip0_808_2148">
<rect width="50" height="50" fill="white"/>
</clipPath>
</defs>
</svg>
