<svg width="50" height="50" viewBox="0 0 50 50" fill="none" xmlns="http://www.w3.org/2000/svg">
<g clip-path="url(#clip0_808_2162)">
<path d="M45.5 0H4.5C2.01472 0 0 2.01472 0 4.5V45.5C0 47.9853 2.01472 50 4.5 50H45.5C47.9853 50 50 47.9853 50 45.5V4.5C50 2.01472 47.9853 0 45.5 0Z" fill="#000E9C"/>
<path d="M11.79 14.6C11.79 17.47 17.55 19.8 24.66 19.8C31.77 19.8 37.53 17.47 37.53 14.6" stroke="white" stroke-linejoin="round"/>
<path d="M37.53 14.6C37.53 11.73 31.77 9.4 24.66 9.4C17.55 9.4 11.79 11.73 11.79 14.6" stroke="white" stroke-linejoin="round"/>
<path d="M11.79 28.32C11.79 31.19 17.55 33.52 24.66 33.52C31.77 33.52 37.53 31.19 37.53 28.32" stroke="white" stroke-linejoin="round"/>
<path d="M11.79 21.46C11.79 24.33 17.55 26.66 24.66 26.66C31.77 26.66 37.53 24.33 37.53 21.46" stroke="white" stroke-linejoin="round"/>
<path d="M37.53 33.98V14.6" stroke="white" stroke-linejoin="round"/>
<path d="M11.79 14.6V35.18C11.79 38.05 17.55 40.38 24.66 40.38C25.31 40.38 25.95 40.36 26.58 40.32" stroke="white" stroke-linejoin="round"/>
<path d="M29.4501 35.47H30.4001L31.1101 38C31.1901 38.29 31.2701 38.56 31.3301 38.82C31.3901 39.08 31.4701 39.35 31.5601 39.64H31.5901C31.6801 39.35 31.7501 39.07 31.8201 38.82C31.8801 38.56 31.9501 38.29 32.0301 38L32.7301 35.47H33.6501L32.0901 40.51H31.0401L29.4701 35.47H29.4501Z" fill="#36E5FF"/>
<path d="M34.2501 35.47H35.1401V37.76H35.1601L36.9501 35.47H37.9401L36.3901 37.43L38.2001 40.5H37.2101L35.8501 38.13L35.1301 39.03V40.5H34.2401V35.46L34.2501 35.47Z" fill="#36E5FF"/>
</g>
<defs>
<clipPath id="clip0_808_2162">
<rect width="50" height="50" fill="white"/>
</clipPath>
</defs>
</svg>
