<svg width="50" height="50" viewBox="0 0 50 50" fill="none" xmlns="http://www.w3.org/2000/svg">
<g clip-path="url(#clip0_808_1964)">
<path d="M45.5 0H4.5C2.01472 0 0 2.01472 0 4.5V45.5C0 47.9853 2.01472 50 4.5 50H45.5C47.9853 50 50 47.9853 50 45.5V4.5C50 2.01472 47.9853 0 45.5 0Z" fill="#000E9C"/>
<path d="M12.05 14.6C12.05 17.47 17.81 19.8 24.92 19.8C32.03 19.8 37.79 17.47 37.79 14.6" stroke="white" stroke-linejoin="round"/>
<path d="M37.79 14.6C37.79 11.73 32.03 9.4 24.92 9.4C17.81 9.4 12.05 11.73 12.05 14.6" stroke="white" stroke-linejoin="round"/>
<path d="M12.05 28.31C12.05 31.18 17.81 33.51 24.92 33.51C32.03 33.51 37.79 31.18 37.79 28.31" stroke="white" stroke-linejoin="round"/>
<path d="M12.05 21.45C12.05 24.32 17.81 26.65 24.92 26.65C32.03 26.65 37.79 24.32 37.79 21.45" stroke="white" stroke-linejoin="round"/>
<path d="M37.79 33.97V14.6" stroke="white" stroke-linejoin="round"/>
<path d="M12.05 14.6V35.18C12.05 38.05 17.81 40.38 24.92 40.38C25.57 40.38 26.21 40.36 26.84 40.32" stroke="white" stroke-linejoin="round"/>
<path d="M29.28 35.47H30.27L31.18 37.95L31.51 38.91H31.54L31.86 37.95L32.75 35.47H33.74V40.51H32.9V38.21C32.9 38.09 32.9 37.96 32.91 37.83C32.92 37.7 32.93 37.55 32.94 37.41C32.94 37.27 32.96 37.13 32.98 36.99C33 36.85 33.01 36.73 33.02 36.61H32.99L32.58 37.76L31.71 40.05H31.29L30.42 37.76L30.02 36.61H29.99C29.99 36.73 30.01 36.86 30.02 36.99C30.03 37.13 30.05 37.26 30.06 37.41C30.07 37.55 30.08 37.69 30.09 37.83C30.1 37.97 30.1 38.1 30.1 38.21V40.51H29.28V35.47Z" fill="#36E5FF"/>
<path d="M34.9801 39.33C35.1301 39.48 35.3001 39.61 35.4901 39.71C35.6801 39.82 35.9001 39.87 36.1501 39.87C36.4201 39.87 36.6301 39.8 36.8001 39.67C36.9701 39.54 37.0501 39.36 37.0501 39.13C37.0501 39 37.0301 38.89 36.9801 38.78C36.9301 38.67 36.8601 38.59 36.7501 38.52C36.6401 38.45 36.4901 38.39 36.3101 38.35C36.1301 38.31 35.8901 38.29 35.6201 38.29V37.64C35.8601 37.64 36.0601 37.62 36.2201 37.58C36.3801 37.54 36.5101 37.49 36.6101 37.42C36.7101 37.35 36.7801 37.27 36.8201 37.17C36.8601 37.07 36.8901 36.97 36.8901 36.85C36.8901 36.64 36.8301 36.48 36.7001 36.37C36.5701 36.25 36.4001 36.2 36.1701 36.2C35.9701 36.2 35.8001 36.24 35.6401 36.33C35.4801 36.41 35.3301 36.53 35.1801 36.66L34.7301 36.11C34.9401 35.93 35.1601 35.78 35.4001 35.66C35.6401 35.55 35.9001 35.49 36.2001 35.49C36.4401 35.49 36.6501 35.52 36.8501 35.57C37.0501 35.63 37.2101 35.71 37.3501 35.82C37.4901 35.93 37.6001 36.07 37.6701 36.23C37.7501 36.39 37.7901 36.57 37.7901 36.78C37.7901 37.06 37.7101 37.29 37.5601 37.47C37.4101 37.65 37.2001 37.8 36.9301 37.9V37.93C37.2201 38.01 37.4701 38.15 37.6601 38.35C37.8501 38.55 37.9501 38.82 37.9501 39.14C37.9501 39.37 37.9101 39.57 37.8201 39.74C37.7301 39.91 37.6101 40.06 37.4501 40.18C37.2901 40.3 37.1101 40.39 36.9001 40.46C36.6901 40.53 36.4701 40.56 36.2301 40.56C35.8301 40.56 35.5001 40.49 35.2301 40.36C34.9601 40.23 34.7401 40.06 34.5701 39.87L34.9901 39.3L34.9801 39.33Z" fill="#36E5FF"/>
</g>
<defs>
<clipPath id="clip0_808_1964">
<rect width="50" height="50" fill="white"/>
</clipPath>
</defs>
</svg>
