<svg width="50" height="50" viewBox="0 0 50 50" fill="none" xmlns="http://www.w3.org/2000/svg">
<g clip-path="url(#clip0_808_2135)">
<path d="M45.5 0H4.5C2.01472 0 0 2.01472 0 4.5V45.5C0 47.9853 2.01472 50 4.5 50H45.5C47.9853 50 50 47.9853 50 45.5V4.5C50 2.01472 47.9853 0 45.5 0Z" fill="#000E9C"/>
<path d="M45.5 0H4.5C2.01472 0 0 2.01472 0 4.5V45.5C0 47.9853 2.01472 50 4.5 50H45.5C47.9853 50 50 47.9853 50 45.5V4.5C50 2.01472 47.9853 0 45.5 0Z" fill="#000E9C"/>
<path d="M11.8401 14.68C11.8401 17.55 17.6001 19.88 24.7101 19.88C31.8201 19.88 37.5801 17.55 37.5801 14.68" stroke="white" stroke-linejoin="round"/>
<path d="M37.5701 14.68C37.5701 11.81 31.8101 9.48 24.7001 9.48C17.5901 9.48 11.8301 11.81 11.8301 14.68" stroke="white" stroke-linejoin="round"/>
<path d="M11.8401 28.4C11.8401 31.27 17.6001 33.6 24.7101 33.6C31.8201 33.6 37.5801 31.27 37.5801 28.4" stroke="white" stroke-linejoin="round"/>
<path d="M11.8401 21.54C11.8401 24.41 17.6001 26.74 24.7101 26.74C31.8201 26.74 37.5801 24.41 37.5801 21.54" stroke="white" stroke-linejoin="round"/>
<path d="M37.5701 32.42V14.68" stroke="white" stroke-linejoin="round"/>
<path d="M33.6501 37.48C33.6501 37 33.7201 36.57 33.8601 36.19C34.0001 35.81 34.1901 35.49 34.4401 35.22C34.6901 34.96 34.9701 34.76 35.3001 34.62C35.6301 34.48 35.9801 34.41 36.3601 34.41C36.7401 34.41 37.0401 34.49 37.3301 34.64C37.6101 34.79 37.8501 34.96 38.0401 35.16L37.4601 35.81C37.3101 35.66 37.1501 35.54 36.9801 35.45C36.8101 35.36 36.6101 35.32 36.3801 35.32C36.1301 35.32 35.9101 35.37 35.7101 35.47C35.5101 35.57 35.3301 35.71 35.1901 35.89C35.0401 36.07 34.9301 36.3 34.8501 36.56C34.7701 36.82 34.7301 37.12 34.7301 37.45C34.7301 38.12 34.8801 38.65 35.1701 39.03C35.4601 39.41 35.8601 39.6 36.3501 39.6C36.6101 39.6 36.8401 39.55 37.0401 39.45C37.2401 39.35 37.4201 39.2 37.5801 39.02L38.1601 39.66C37.9201 39.94 37.6501 40.15 37.3401 40.29C37.0301 40.44 36.7001 40.51 36.3201 40.51C35.9401 40.51 35.5901 40.44 35.2701 40.31C34.9501 40.18 34.6601 39.98 34.4201 39.73C34.1801 39.48 33.9901 39.15 33.8501 38.78C33.7101 38.4 33.6401 37.97 33.6401 37.48H33.6501Z" fill="#36E5FF"/>
<path d="M11.8401 14.68V35.26C11.8401 38.13 17.6001 40.46 24.7101 40.46C27.2801 40.46 29.6701 40.16 31.6801 39.63" stroke="white" stroke-linejoin="round"/>
</g>
<defs>
<clipPath id="clip0_808_2135">
<rect width="50" height="50" fill="white"/>
</clipPath>
</defs>
</svg>
