<svg width="50" height="50" viewBox="0 0 50 50" fill="none" xmlns="http://www.w3.org/2000/svg">
<g clip-path="url(#clip0_808_1881)">
<path d="M45.5 0H4.5C2.01472 0 0 2.01472 0 4.5V45.5C0 47.9853 2.01472 50 4.5 50H45.5C47.9853 50 50 47.9853 50 45.5V4.5C50 2.01472 47.9853 0 45.5 0Z" fill="#000E9C"/>
<path d="M33.53 27.42C33.53 27.42 33.58 25.03 35.66 25.03C37.74 25.03 37.91 27.23 37.91 27.71C37.91 28.19 37.79 30.41 34.69 30.41H29.74C29.74 30.41 27.01 30.47 26.89 26.82C26.79 23.88 27.31 22.5 28.47 21.36C29.63 20.22 31.2 19.46 33.19 20.24C34.55 20.77 35.66 22.51 35.66 25.02" stroke="white" stroke-linejoin="round"/>
<path d="M30.05 24.79C30.05 24.79 27.92 25.02 26.89 26.82" stroke="white" stroke-linejoin="round"/>
<path d="M18.4 25.81C18.4 28.06 15.79 27.47 15.52 26.56C14.98 24.78 13.81 25.03 13.81 25.03C12.61 25.03 11.5 26.24 11.62 27.72C11.7 28.74 11.87 30.72 15.16 30.72H22.3C24.4 30.72 26.7 31.76 28.07 34.2" stroke="white" stroke-linejoin="round"/>
<path d="M31.3 25.69C31.9903 25.69 32.55 25.1304 32.55 24.44C32.55 23.7496 31.9903 23.19 31.3 23.19C30.6096 23.19 30.05 23.7496 30.05 24.44C30.05 25.1304 30.6096 25.69 31.3 25.69Z" stroke="white" stroke-linejoin="round"/>
<path d="M24.4 22.43C25.0904 22.43 25.65 21.8704 25.65 21.18C25.65 20.4896 25.0904 19.93 24.4 19.93C23.7097 19.93 23.15 20.4896 23.15 21.18C23.15 21.8704 23.7097 22.43 24.4 22.43Z" stroke="white" stroke-linejoin="round"/>
<path d="M18.44 25.69C19.1304 25.69 19.69 25.1304 19.69 24.44C19.69 23.7496 19.1304 23.19 18.44 23.19C17.7496 23.19 17.19 23.7496 17.19 24.44C17.19 25.1304 17.7496 25.69 18.44 25.69Z" stroke="white" stroke-linejoin="round"/>
<path d="M22.87 28.58C23.5604 28.58 24.12 28.0204 24.12 27.33C24.12 26.6396 23.5604 26.08 22.87 26.08C22.1796 26.08 21.62 26.6396 21.62 27.33C21.62 28.0204 22.1796 28.58 22.87 28.58Z" stroke="white" stroke-linejoin="round"/>
<path d="M27.51 18.77C27.51 18.77 27.22 17.97 26.61 17.26C25.74 16.24 23.47 15.65 21.96 17.44" stroke="white" stroke-linejoin="round"/>
<path d="M23.47 20.2C22.89 19.65 23.02 18.41 21.96 17.44C21.02 16.58 19.57 16.6 18.7 17.35C16.84 18.95 18.44 21.16 19.45 21.63C20.46 22.1 22.62 23.06 22.83 25.89" stroke="white" stroke-linejoin="round"/>
<path d="M14.08 24.79C14.08 24.79 13.37 20.26 17.84 19.73" stroke="white" stroke-linejoin="round"/>
<path d="M31.48 19.73C31.48 19.73 31.48 19.17 31.1 18.48C30.46 17.32 28.72 16.29 26.68 17.4" stroke="white" stroke-linejoin="round"/>
<path d="M26.99 11.82L24.68 9.51L22.37 11.82" stroke="#36E5FF" stroke-linejoin="round"/>
<path d="M22.37 38.18L24.68 40.49L26.99 38.18" stroke="#36E5FF" stroke-linejoin="round"/>
<path d="M40.46 37.21V40.48H37.19" stroke="#36E5FF" stroke-linejoin="round"/>
<path d="M40.44 40.42L35.88 35.86" stroke="#36E5FF" stroke-linejoin="round"/>
<path d="M9.53003 37.23V40.5H12.8" stroke="#36E5FF" stroke-linejoin="round"/>
<path d="M9.55005 40.44L14.13 35.86" stroke="#36E5FF" stroke-linejoin="round"/>
<path d="M9.51001 12.78V9.52H12.78" stroke="#36E5FF" stroke-linejoin="round"/>
<path d="M9.53003 9.57001L14.09 14.13" stroke="#36E5FF" stroke-linejoin="round"/>
<path d="M40.49 12.77V9.5H37.22" stroke="#36E5FF" stroke-linejoin="round"/>
<path d="M40.47 9.56L35.88 14.15" stroke="#36E5FF" stroke-linejoin="round"/>
</g>
<defs>
<clipPath id="clip0_808_1881">
<rect width="50" height="50" fill="white"/>
</clipPath>
</defs>
</svg>
