<svg width="50" height="50" viewBox="0 0 50 50" fill="none" xmlns="http://www.w3.org/2000/svg">
<g clip-path="url(#clip0_808_2176)">
<path d="M45.5 0H4.5C2.01472 0 0 2.01472 0 4.5V45.5C0 47.9853 2.01472 50 4.5 50H45.5C47.9853 50 50 47.9853 50 45.5V4.5C50 2.01472 47.9853 0 45.5 0Z" fill="#000E9C"/>
<path d="M13.08 34.56C14.4055 34.56 15.48 33.4855 15.48 32.16C15.48 30.8345 14.4055 29.76 13.08 29.76C11.7545 29.76 10.68 30.8345 10.68 32.16C10.68 33.4855 11.7545 34.56 13.08 34.56Z" stroke="#36E5FF" stroke-linejoin="round"/>
<path d="M36.92 34.56C38.2455 34.56 39.32 33.4855 39.32 32.16C39.32 30.8345 38.2455 29.76 36.92 29.76C35.5945 29.76 34.52 30.8345 34.52 32.16C34.52 33.4855 35.5945 34.56 36.92 34.56Z" stroke="#36E5FF" stroke-linejoin="round"/>
<path d="M25.05 40.45C26.3755 40.45 27.45 39.3755 27.45 38.05C27.45 36.7245 26.3755 35.65 25.05 35.65C23.7246 35.65 22.65 36.7245 22.65 38.05C22.65 39.3755 23.7246 40.45 25.05 40.45Z" stroke="#36E5FF" stroke-linejoin="round"/>
<path d="M25 26.23V35.64" stroke="#36E5FF" stroke-linejoin="round"/>
<path d="M19.97 26.23V32.16H15.48" stroke="#36E5FF" stroke-linejoin="round"/>
<path d="M30.03 26.23V32.16H34.52" stroke="#36E5FF" stroke-linejoin="round"/>
<path d="M35.33 22.61C35.33 22.61 35.39 19.79 37.84 19.79C40.29 19.79 40.49 22.38 40.49 22.94C40.49 23.5 40.35 26.12 36.7 26.12H30.87C30.87 26.12 27.66 26.19 27.52 21.9C27.41 18.44 28.01 16.82 29.38 15.48C30.75 14.14 32.6 13.24 34.94 14.16C36.55 14.79 37.85 16.84 37.85 19.79" stroke="white" stroke-linejoin="round"/>
<path d="M31.23 19.51C31.23 19.51 28.73 19.78 27.51 21.9" stroke="white" stroke-linejoin="round"/>
<path d="M17.51 20.71C17.51 23.36 14.44 22.67 14.11 21.59C13.48 19.5 12.1 19.79 12.1 19.79C10.68 19.79 9.38001 21.21 9.52001 22.96C9.61001 24.16 10.35 26.13 14.22 26.13H25.5" stroke="white" stroke-linejoin="round"/>
<path d="M32.7 20.58C33.5118 20.58 34.17 19.9219 34.17 19.11C34.17 18.2981 33.5118 17.64 32.7 17.64C31.8881 17.64 31.23 18.2981 31.23 19.11C31.23 19.9219 31.8881 20.58 32.7 20.58Z" stroke="white" stroke-linejoin="round"/>
<path d="M24.58 16.73C25.3918 16.73 26.05 16.0719 26.05 15.26C26.05 14.4481 25.3918 13.79 24.58 13.79C23.7681 13.79 23.11 14.4481 23.11 15.26C23.11 16.0719 23.7681 16.73 24.58 16.73Z" stroke="white" stroke-linejoin="round"/>
<path d="M17.56 20.58C18.3718 20.58 19.03 19.9219 19.03 19.11C19.03 18.2981 18.3718 17.64 17.56 17.64C16.7481 17.64 16.09 18.2981 16.09 19.11C16.09 19.9219 16.7481 20.58 17.56 20.58Z" stroke="white" stroke-linejoin="round"/>
<path d="M22.78 23.98C23.5919 23.98 24.25 23.3219 24.25 22.51C24.25 21.6981 23.5919 21.04 22.78 21.04C21.9681 21.04 21.31 21.6981 21.31 22.51C21.31 23.3219 21.9681 23.98 22.78 23.98Z" stroke="white" stroke-linejoin="round"/>
<path d="M28.24 12.42C28.24 12.42 27.9 11.47 27.18 10.64C26.15 9.45 23.48 8.74 21.71 10.86" stroke="white" stroke-linejoin="round"/>
<path d="M23.48 14.11C22.8 13.47 22.95 12 21.71 10.86C20.6 9.84 18.9 9.87 17.87 10.76C15.68 12.65 17.56 15.25 18.76 15.79C19.96 16.33 22.49 17.47 22.74 20.8" stroke="white" stroke-linejoin="round"/>
<path d="M12.43 19.51C12.43 19.51 11.59 14.18 16.86 13.56" stroke="white" stroke-linejoin="round"/>
<path d="M32.92 13.56C32.92 13.56 32.92 12.91 32.47 12.09C31.72 10.73 29.67 9.51 27.27 10.82" stroke="white" stroke-linejoin="round"/>
</g>
<defs>
<clipPath id="clip0_808_2176">
<rect width="50" height="50" fill="white"/>
</clipPath>
</defs>
</svg>
