<svg width="50" height="50" viewBox="0 0 50 50" fill="none" xmlns="http://www.w3.org/2000/svg">
<g clip-path="url(#clip0_808_1945)">
<path d="M45.5 0H4.5C2.01472 0 0 2.01472 0 4.5V45.5C0 47.9853 2.01472 50 4.5 50H45.5C47.9853 50 50 47.9853 50 45.5V4.5C50 2.01472 47.9853 0 45.5 0Z" fill="#000E9C"/>
<path d="M29.02 29.65C29.02 29.65 26.09 29.71 25.96 25.79C25.86 22.63 26.41 21.15 27.66 19.92C28.91 18.7 30.6 17.88 32.74 18.71C34.21 19.28 35.4 21.15 35.4 23.85" stroke="white" stroke-linejoin="round"/>
<path d="M29.35 23.61C29.35 23.61 27.06 23.86 25.96 25.8" stroke="white" stroke-linejoin="round"/>
<path d="M16.82 24.7C16.82 27.12 14.01 26.49 13.72 25.5C13.14 23.59 11.88 23.86 11.88 23.86C10.58 23.86 9.40002 25.16 9.52002 26.75C9.61002 27.85 9.78003 29.97 13.32 29.97H21C23.26 29.97 25.73 31.09 27.21 33.72" stroke="white" stroke-linejoin="round"/>
<path d="M30.69 24.57C31.4301 24.57 32.03 23.97 32.03 23.23C32.03 22.4899 31.4301 21.89 30.69 21.89C29.95 21.89 29.35 22.4899 29.35 23.23C29.35 23.97 29.95 24.57 30.69 24.57Z" stroke="white" stroke-linejoin="round"/>
<path d="M23.2701 21.06C24.0101 21.06 24.6101 20.4601 24.6101 19.72C24.6101 18.9799 24.0101 18.38 23.2701 18.38C22.53 18.38 21.9301 18.9799 21.9301 19.72C21.9301 20.4601 22.53 21.06 23.2701 21.06Z" stroke="white" stroke-linejoin="round"/>
<path d="M16.87 24.57C17.6101 24.57 18.21 23.97 18.21 23.23C18.21 22.4899 17.6101 21.89 16.87 21.89C16.13 21.89 15.53 22.4899 15.53 23.23C15.53 23.97 16.13 24.57 16.87 24.57Z" stroke="white" stroke-linejoin="round"/>
<path d="M21.63 27.68C22.3701 27.68 22.97 27.0801 22.97 26.34C22.97 25.5999 22.3701 25 21.63 25C20.89 25 20.29 25.5999 20.29 26.34C20.29 27.0801 20.89 27.68 21.63 27.68Z" stroke="white" stroke-linejoin="round"/>
<path d="M26.62 17.13C26.62 17.13 26.31 16.27 25.65 15.5C24.71 14.41 22.27 13.77 20.65 15.7" stroke="white" stroke-linejoin="round"/>
<path d="M22.27 18.67C21.65 18.08 21.7801 16.74 20.6501 15.7C19.6401 14.77 18.08 14.79 17.14 15.61C15.14 17.33 16.86 19.71 17.95 20.21C19.04 20.71 21.3601 21.74 21.5801 24.79" stroke="white" stroke-linejoin="round"/>
<path d="M12.1801 23.61C12.1801 23.61 11.4101 18.74 16.2201 18.17" stroke="white" stroke-linejoin="round"/>
<path d="M30.89 18.17C30.89 18.17 30.89 17.57 30.48 16.83C29.79 15.58 27.92 14.47 25.73 15.67" stroke="white" stroke-linejoin="round"/>
<path d="M35.55 32.57C36.638 32.57 37.52 31.688 37.52 30.6C37.52 29.512 36.638 28.63 35.55 28.63C34.462 28.63 33.58 29.512 33.58 30.6C33.58 31.688 34.462 32.57 35.55 32.57Z" stroke="#36E5FF" stroke-linejoin="round"/>
<path d="M35.18 34.61C35.4 34.63 35.63 34.63 35.86 34.61C36.17 34.59 36.47 34.77 36.59 35.06L36.71 35.37C36.76 35.5 36.91 35.56 37.04 35.51L37.9 35.16C38.03 35.11 38.09 34.96 38.04 34.83L37.92 34.52C37.8 34.23 37.89 33.89 38.13 33.69C38.31 33.54 38.47 33.38 38.62 33.21C38.83 32.97 39.16 32.89 39.45 33.01L39.76 33.14C39.89 33.19 40.04 33.14 40.09 33.01L40.45 32.16C40.5 32.03 40.45 31.88 40.32 31.83L40.01 31.7C39.72 31.58 39.55 31.28 39.57 30.96C39.59 30.74 39.59 30.51 39.57 30.28C39.55 29.97 39.73 29.67 40.02 29.55L40.33 29.43C40.46 29.38 40.52 29.23 40.47 29.1L40.12 28.24C40.07 28.11 39.92 28.05 39.79 28.1L39.48 28.22C39.19 28.34 38.85 28.25 38.65 28.01C38.5 27.83 38.34 27.67 38.17 27.52C37.93 27.31 37.85 26.98 37.97 26.69L38.1 26.38C38.15 26.25 38.1 26.1 37.97 26.05L37.12 25.69C36.99 25.64 36.84 25.69 36.79 25.82L36.66 26.13C36.54 26.42 36.24 26.59 35.92 26.57C35.7 26.55 35.47 26.55 35.24 26.57C34.93 26.59 34.63 26.41 34.51 26.12L34.39 25.81C34.34 25.68 34.19 25.62 34.06 25.67L33.2 26.02C33.07 26.07 33.01 26.22 33.06 26.35L33.18 26.66C33.3 26.95 33.21 27.29 32.97 27.49C32.79 27.64 32.63 27.8 32.48 27.97C32.27 28.21 31.94 28.29 31.65 28.17L31.34 28.04C31.21 27.99 31.06 28.04 31.01 28.17L30.65 29.02C30.6 29.15 30.65 29.3 30.78 29.35L31.09 29.48C31.38 29.6 31.55 29.9 31.53 30.22C31.51 30.44 31.51 30.67 31.53 30.9C31.55 31.21 31.37 31.51 31.08 31.63L30.77 31.75C30.64 31.8 30.58 31.95 30.63 32.08L30.98 32.94C31.03 33.07 31.18 33.13 31.31 33.08L31.62 32.96C31.91 32.84 32.25 32.93 32.45 33.17C32.6 33.35 32.76 33.51 32.93 33.66C33.17 33.87 33.25 34.2 33.13 34.49L33 34.8C32.95 34.93 33 35.08 33.13 35.13L33.98 35.49C34.11 35.54 34.26 35.49 34.31 35.36L34.44 35.05C34.56 34.76 34.86 34.59 35.18 34.61Z" stroke="#36E5FF" stroke-linejoin="round"/>
</g>
<defs>
<clipPath id="clip0_808_1945">
<rect width="50" height="50" fill="white"/>
</clipPath>
</defs>
</svg>
